<?xml version="1.0" encoding="utf-8"?>
<!-- Generator: Adobe Illustrator 16.0.2, SVG Export Plug-In . SVG Version: 6.00 Build 0)  -->
<!DOCTYPE svg PUBLIC "-//W3C//DTD SVG 1.1//EN" "http://www.w3.org/Graphics/SVG/1.1/DTD/svg11.dtd">
<svg version="1.1" id="Layer_1" xmlns="http://www.w3.org/2000/svg" xmlns:xlink="http://www.w3.org/1999/xlink" x="0px" y="0px"
	 width="200px" height="100px" viewBox="0 0 200 100" enable-background="new 0 0 200 100" xml:space="preserve">
<g>
	<g>
		<g>
			<path fill="#9D9D9C" d="M20-1.25c-3.333,0-6.667,0-10,0c-1.612,0-1.612,2.5,0,2.5c3.333,0,6.667,0,10,0
				C21.612,1.25,21.612-1.25,20-1.25L20-1.25z"/>
		</g>
	</g>
	<g>
		<g>
			<path fill="#9D9D9C" d="M60-1.25c-3.333,0-6.667,0-10,0c-1.612,0-1.612,2.5,0,2.5c3.333,0,6.667,0,10,0
				C61.612,1.25,61.612-1.25,60-1.25L60-1.25z"/>
		</g>
	</g>
	<g>
		<g>
			<path fill="#9D9D9C" d="M100-1.25c-3.333,0-6.667,0-10,0c-1.612,0-1.612,2.5,0,2.5c3.333,0,6.667,0,10,0
				C101.611,1.25,101.611-1.25,100-1.25L100-1.25z"/>
		</g>
	</g>
	<g>
		<g>
			<path fill="#9D9D9C" d="M140-1.25c-3.333,0-6.667,0-10,0c-1.611,0-1.611,2.5,0,2.5c3.333,0,6.667,0,10,0
				C141.611,1.25,141.611-1.25,140-1.25L140-1.25z"/>
		</g>
	</g>
	<g>
		<g>
			<path fill="#9D9D9C" d="M160-1.25c-3.333,0-6.667,0-10,0c-1.611,0-1.611,2.5,0,2.5c3.333,0,6.667,0,10,0
				C161.611,1.25,161.611-1.25,160-1.25L160-1.25z"/>
		</g>
	</g>
	<g>
		<g>
			<path fill="#9D9D9C" d="M200-1.25c-3.333,0-6.667,0-10,0c-1.611,0-1.611,2.5,0,2.5c3.333,0,6.667,0,10,0
				C201.611,1.25,201.611-1.25,200-1.25L200-1.25z"/>
		</g>
	</g>
	<g>
		<g>
			<path fill="#9D9D9C" d="M201.25,40c0-3.333,0-6.667,0-10c0-1.612-2.5-1.612-2.5,0c0,3.333,0,6.667,0,10
				C198.75,41.612,201.25,41.612,201.25,40L201.25,40z"/>
		</g>
	</g>
	<g>
		<g>
			<path fill="#9D9D9C" d="M201.25,80c0-3.333,0-6.667,0-10c0-1.611-2.5-1.611-2.5,0c0,3.333,0,6.667,0,10
				C198.75,81.611,201.25,81.611,201.25,80L201.25,80z"/>
		</g>
	</g>
	<g>
		<g>
			<path fill="#9D9D9C" d="M190,98.75c-3.333,0-6.667,0-10,0c-1.611,0-1.611,2.5,0,2.5c3.333,0,6.667,0,10,0
				C191.611,101.25,191.611,98.75,190,98.75L190,98.75z"/>
		</g>
	</g>
	<g>
		<g>
			<path fill="#9D9D9C" d="M150,98.75c-3.333,0-6.667,0-10,0c-1.611,0-1.611,2.5,0,2.5c3.333,0,6.667,0,10,0
				C151.611,101.25,151.611,98.75,150,98.75L150,98.75z"/>
		</g>
	</g>
	<g>
		<g>
			<path fill="#9D9D9C" d="M110,98.75c-3.333,0-6.667,0-10,0c-1.612,0-1.612,2.5,0,2.5c3.333,0,6.667,0,10,0
				C111.611,101.25,111.611,98.75,110,98.75L110,98.75z"/>
		</g>
	</g>
	<g>
		<g>
			<path fill="#9D9D9C" d="M70,98.75c-3.333,0-6.667,0-10,0c-1.612,0-1.612,2.5,0,2.5c3.333,0,6.667,0,10,0
				C71.612,101.25,71.612,98.75,70,98.75L70,98.75z"/>
		</g>
	</g>
	<g>
		<g>
			<path fill="#9D9D9C" d="M50,98.75c-3.333,0-6.667,0-10,0c-1.612,0-1.612,2.5,0,2.5c3.333,0,6.667,0,10,0
				C51.612,101.25,51.612,98.75,50,98.75L50,98.75z"/>
		</g>
	</g>
	<g>
		<g>
			<path fill="#9D9D9C" d="M10,98.75c-3.333,0-6.667,0-10,0c-1.612,0-1.612,2.5,0,2.5c3.333,0,6.667,0,10,0
				C11.612,101.25,11.612,98.75,10,98.75L10,98.75z"/>
		</g>
	</g>
	<g>
		<g>
			<path fill="#9D9D9C" d="M1.25,70c0-3.333,0-6.667,0-10c0-1.611-2.5-1.611-2.5,0c0,3.333,0,6.667,0,10
				C-1.25,71.611,1.25,71.611,1.25,70L1.25,70z"/>
		</g>
	</g>
	<g>
		<g>
			<path fill="#9D9D9C" d="M1.25,30c0-3.333,0-6.667,0-10c0-1.612-2.5-1.612-2.5,0c0,3.333,0,6.667,0,10
				C-1.25,31.612,1.25,31.612,1.25,30L1.25,30z"/>
		</g>
	</g>
	<g>
		<g>
			<path fill="#9D9D9C" d="M1.25,10c0-3.333,0-6.667,0-10c0-1.612-2.5-1.612-2.5,0c0,3.333,0,6.667,0,10
				C-1.25,11.612,1.25,11.612,1.25,10L1.25,10z"/>
		</g>
	</g>
	<g>
		<g>
			<path fill="#9D9D9C" d="M1.25,50c0-3.333,0-6.667,0-10c0-1.612-2.5-1.612-2.5,0c0,3.333,0,6.667,0,10
				C-1.25,51.611,1.25,51.611,1.25,50L1.25,50z"/>
		</g>
	</g>
	<g>
		<g>
			<path fill="#9D9D9C" d="M1.25,90c0-3.333,0-6.667,0-10c0-1.611-2.5-1.611-2.5,0c0,3.333,0,6.667,0,10
				C-1.25,91.611,1.25,91.611,1.25,90L1.25,90z"/>
		</g>
	</g>
	<g>
		<g>
			<path fill="#9D9D9C" d="M30,98.75c-3.333,0-6.667,0-10,0c-1.612,0-1.612,2.5,0,2.5c3.333,0,6.667,0,10,0
				C31.612,101.25,31.612,98.75,30,98.75L30,98.75z"/>
		</g>
	</g>
	<g>
		<g>
			<path fill="#9D9D9C" d="M90,98.75c-3.333,0-6.667,0-10,0c-1.612,0-1.612,2.5,0,2.5c3.333,0,6.667,0,10,0
				C91.612,101.25,91.612,98.75,90,98.75L90,98.75z"/>
		</g>
	</g>
	<g>
		<g>
			<path fill="#9D9D9C" d="M130,98.75c-3.333,0-6.667,0-10,0c-1.611,0-1.611,2.5,0,2.5c3.333,0,6.667,0,10,0
				C131.611,101.25,131.611,98.75,130,98.75L130,98.75z"/>
		</g>
	</g>
	<g>
		<g>
			<path fill="#9D9D9C" d="M170,98.75c-3.333,0-6.667,0-10,0c-1.611,0-1.611,2.5,0,2.5c3.333,0,6.667,0,10,0
				C171.611,101.25,171.611,98.75,170,98.75L170,98.75z"/>
		</g>
	</g>
	<g>
		<g>
			<path fill="#9D9D9C" d="M201.25,100c0-3.333,0-6.667,0-10c0-1.611-2.5-1.611-2.5,0c0,3.333,0,6.667,0,10
				C198.75,101.611,201.25,101.611,201.25,100L201.25,100z"/>
		</g>
	</g>
	<g>
		<g>
			<path fill="#9D9D9C" d="M201.25,60c0-3.333,0-6.667,0-10c0-1.612-2.5-1.612-2.5,0c0,3.333,0,6.667,0,10
				C198.75,61.611,201.25,61.611,201.25,60L201.25,60z"/>
		</g>
	</g>
	<g>
		<g>
			<path fill="#9D9D9C" d="M201.25,20c0-3.333,0-6.667,0-10c0-1.612-2.5-1.612-2.5,0c0,3.333,0,6.667,0,10
				C198.75,21.612,201.25,21.612,201.25,20L201.25,20z"/>
		</g>
	</g>
	<g>
		<g>
			<path fill="#9D9D9C" d="M180-1.25c-3.333,0-6.667,0-10,0c-1.611,0-1.611,2.5,0,2.5c3.333,0,6.667,0,10,0
				C181.611,1.25,181.611-1.25,180-1.25L180-1.25z"/>
		</g>
	</g>
	<g>
		<g>
			<path fill="#9D9D9C" d="M120-1.25c-3.333,0-6.667,0-10,0c-1.611,0-1.611,2.5,0,2.5c3.333,0,6.667,0,10,0
				C121.611,1.25,121.611-1.25,120-1.25L120-1.25z"/>
		</g>
	</g>
	<g>
		<g>
			<path fill="#9D9D9C" d="M80-1.25c-3.333,0-6.667,0-10,0c-1.612,0-1.612,2.5,0,2.5c3.333,0,6.667,0,10,0
				C81.612,1.25,81.612-1.25,80-1.25L80-1.25z"/>
		</g>
	</g>
	<g>
		<g>
			<path fill="#9D9D9C" d="M40-1.25c-3.333,0-6.667,0-10,0c-1.612,0-1.612,2.5,0,2.5c3.333,0,6.667,0,10,0
				C41.612,1.25,41.612-1.25,40-1.25L40-1.25z"/>
		</g>
	</g>
</g>
<g>
	<path fill="#706F6F" d="M112.608,53.464c2.682-1.385,4.855-0.858,6.699,1.298c1.955-1.012,3.901-1.164,5.56,0.34
		c0.76,0.688,1.604,1.787,1.616,2.709c0.062,4.934-0.119,9.867-0.252,14.803c-0.015,0.504-0.153,1.06-0.403,1.494
		c-1.959,3.428-1.845,7.174-1.798,10.929c0.045,3.461-1.475,4.96-4.889,4.961c-4.896,0.002-9.791,0.007-14.687-0.002
		c-2.804-0.006-4.356-1.496-4.454-4.272c-0.069-2.009-0.721-3.771-2.121-5.221c-1.736-1.798-3.506-3.563-5.256-5.346
		c-3.607-3.676-5.55-8.109-5.958-13.223c-0.209-2.625,1.648-4.854,4.308-5.248c2.269-0.338,4.365,1.223,5.029,3.694
		c0.222,0.827,0.541,1.628,1.154,2.378c0-5.039,0-10.076,0-15.406c-0.608,0-1.255,0.002-1.902-0.001
		c-7.34-0.037-14.69,0.147-22.019-0.173c-7.26-0.318-13.177-6.848-13.205-14.121c-0.014-3.74-0.188-7.533,0.348-11.209
		c0.985-6.771,7.213-11.821,14.077-11.83c17.026-0.023,34.053-0.026,51.082,0c7.876,0.013,14.431,6.558,14.441,14.43
		c0.006,3.688,0.162,7.425-0.35,11.054c-0.891,6.304-6.51,11.389-12.843,11.684c-6.027,0.28-12.075,0.128-18.112,0.165
		c-0.611,0.003-1.224,0.001-1.927,0.001c0,1.484,0,2.764,0,4.215C109.067,50.983,111.078,51.436,112.608,53.464z M106.651,44.646
		c6.69,0,13.148,0.178,19.593-0.056c5.196-0.189,9.819-3.91,10.557-9.038c0.644-4.468,0.703-9.181,0.031-13.637
		c-0.871-5.768-5.872-9.187-12.022-9.194c-14.992-0.017-29.983-0.007-44.975-0.003c-2.029,0-4.064-0.055-6.088,0.066
		c-5.891,0.352-10.643,5.102-10.957,11.011c-0.149,2.804-0.083,5.62-0.064,8.43c0.051,7.357,5.157,12.438,12.499,12.45
		c6.819,0.012,13.638,0.003,20.456,0.003c0.502,0,1.003,0,1.441,0c0.093-0.312,0.148-0.41,0.149-0.509
		c0.015-2.081-0.002-4.164,0.041-6.245c0.062-3.081,1.962-5.204,4.629-5.229c2.791-0.026,4.683,2.066,4.709,5.241
		C106.666,40.111,106.651,42.289,106.651,44.646z M100.008,51.572c0,4.527,0.026,9.057-0.029,13.584
		c-0.008,0.654-0.246,1.686-0.665,1.863c-0.571,0.242-1.525,0.018-2.13-0.33c-2.098-1.203-3.314-3.09-3.743-5.475
		c-0.213-1.182-0.851-1.938-2.108-1.82c-1.271,0.117-1.923,0.92-1.949,2.201c-0.007,0.363-0.004,0.73,0.045,1.09
		c0.489,3.586,1.771,6.846,4.203,9.557c1.527,1.703,3.137,3.339,4.802,4.908c2.478,2.337,4.229,4.99,4.256,8.529
		c0.01,1.086,0.539,1.609,1.643,1.608c5.102-0.013,10.201-0.007,15.303-0.005c1.059,0.002,1.694-0.422,1.646-1.572
		c-0.184-4.503,0.813-8.736,1.949-13.113c1.16-4.461,0.64-9.375,0.658-14.093c0.004-0.604-1.082-1.559-1.813-1.739
		c-1.06-0.264-1.864,0.561-2.032,1.676c-0.146,0.961-0.566,1.787-1.531,1.457c-0.55-0.188-1.085-1.172-1.156-1.849
		c-0.137-1.307-0.354-2.489-1.83-2.661c-1.389-0.162-1.947,0.771-2.236,2.067c-0.107,0.483-0.896,0.815-1.373,1.222
		c-0.425-0.512-0.882-0.998-1.254-1.543c-0.122-0.18-0.025-0.51-0.023-0.77c0.012-1.26-0.511-2.152-1.822-2.289
		c-1.269-0.133-1.924,0.656-2.121,1.813c-0.154,0.904-0.62,1.631-1.5,1.318c-0.521-0.184-0.842-1.064-1.143-1.688
		c-0.143-0.297-0.023-0.717-0.023-1.082c0-5.415,0.005-10.826-0.004-16.239c-0.002-1.764-0.754-2.83-1.979-2.853
		c-1.213-0.022-2.03,1.081-2.033,2.794C100.003,42.621,100.008,47.096,100.008,51.572z"/>
	<path fill="#706F6F" d="M68.025,28.638c0-1.56-0.047-3.122,0.01-4.68c0.104-2.846,2.539-4.173,4.902-2.63
		c2.392,1.561,4.736,3.199,7.052,4.872c1.819,1.313,1.878,3.536,0.078,4.873c-2.377,1.765-4.811,3.46-7.302,5.058
		c-2.112,1.354-4.581,0.017-4.713-2.5c-0.087-1.659-0.016-3.327-0.016-4.992C68.033,28.638,68.028,28.638,68.025,28.638z
		 M78.868,28.666c-2.781-1.913-5.331-3.667-8.042-5.532c0,3.886,0,7.314,0,11.096C73.626,32.292,76.152,30.543,78.868,28.666z"/>
	<path fill="#706F6F" d="M89.305,38.041c-1.246,0-2.493,0.035-3.738-0.012c-0.857-0.032-1.696-0.434-1.444-1.38
		c0.145-0.54,0.975-1.238,1.529-1.268c2.485-0.137,4.987-0.139,7.472,0.004c0.542,0.031,1.037,0.859,1.554,1.32
		c-0.493,0.443-0.94,1.188-1.487,1.27c-1.27,0.19-2.587,0.061-3.886,0.061C89.305,38.038,89.305,38.04,89.305,38.041z"/>
	<path fill="#706F6F" d="M104.044,23.419c0,1.194,0.005,2.388-0.001,3.581c-0.005,0.962-0.472,1.78-1.426,1.599
		c-0.522-0.098-1.23-1.01-1.265-1.59c-0.144-2.43-0.072-4.874-0.057-7.313c0.006-0.936,0.4-1.8,1.428-1.563
		c0.53,0.125,1.166,0.963,1.262,1.558C104.183,20.908,104.045,22.174,104.044,23.419z"/>
	<path fill="#706F6F" d="M115.938,38.047c-1.143,0.001-2.285,0.008-3.428,0c-0.978-0.007-1.851-0.303-1.818-1.438
		c0.029-1.032,0.836-1.303,1.774-1.295c2.39,0.018,4.782-0.073,7.162,0.063c0.571,0.033,1.442,0.688,1.58,1.213
		c0.274,1.045-0.612,1.42-1.532,1.447C118.433,38.074,117.185,38.046,115.938,38.047z"/>
	<path fill="#706F6F" d="M97.359,29.824c-0.193,0.277-0.384,0.856-0.711,0.949c-0.47,0.133-1.259,0.108-1.53-0.192
		c-1.901-2.116-3.743-4.288-5.495-6.527c-0.252-0.322-0.117-1.31,0.199-1.611c0.314-0.299,1.367-0.379,1.608-0.113
		c1.975,2.182,3.839,4.465,5.722,6.73C97.272,29.201,97.265,29.45,97.359,29.824z"/>
	<path fill="#706F6F" d="M109.308,31.091c-0.351-0.23-0.927-0.402-1.031-0.728c-0.152-0.474-0.17-1.217,0.105-1.567
		c1.7-2.15,3.455-4.261,5.307-6.28c0.313-0.34,1.381-0.43,1.737-0.16c0.349,0.266,0.537,1.374,0.276,1.709
		c-1.741,2.246-3.614,4.392-5.469,6.548C110.053,30.824,109.708,30.893,109.308,31.091z"/>
</g>
</svg>
