<?xml version="1.0" encoding="utf-8"?>
<!-- Generator: Adobe Illustrator 16.0.2, SVG Export Plug-In . SVG Version: 6.00 Build 0)  -->
<!DOCTYPE svg PUBLIC "-//W3C//DTD SVG 1.1//EN" "http://www.w3.org/Graphics/SVG/1.1/DTD/svg11.dtd">
<svg version="1.1" id="Layer_1" xmlns="http://www.w3.org/2000/svg" xmlns:xlink="http://www.w3.org/1999/xlink" x="0px" y="0px"
	 width="200px" height="100px" viewBox="0 0 200 100" enable-background="new 0 0 200 100" xml:space="preserve">
<g>
	<g>
		<g>
			<path fill="#9D9D9C" d="M20-1.25c-3.333,0-6.667,0-10,0c-1.612,0-1.612,2.5,0,2.5c3.333,0,6.667,0,10,0
				C21.612,1.25,21.612-1.25,20-1.25L20-1.25z"/>
		</g>
	</g>
	<g>
		<g>
			<path fill="#9D9D9C" d="M60-1.25c-3.333,0-6.667,0-10,0c-1.612,0-1.612,2.5,0,2.5c3.333,0,6.667,0,10,0
				C61.612,1.25,61.612-1.25,60-1.25L60-1.25z"/>
		</g>
	</g>
	<g>
		<g>
			<path fill="#9D9D9C" d="M100-1.25c-3.333,0-6.667,0-10,0c-1.612,0-1.612,2.5,0,2.5c3.333,0,6.667,0,10,0
				C101.611,1.25,101.611-1.25,100-1.25L100-1.25z"/>
		</g>
	</g>
	<g>
		<g>
			<path fill="#9D9D9C" d="M140-1.25c-3.333,0-6.667,0-10,0c-1.611,0-1.611,2.5,0,2.5c3.333,0,6.667,0,10,0
				C141.611,1.25,141.611-1.25,140-1.25L140-1.25z"/>
		</g>
	</g>
	<g>
		<g>
			<path fill="#9D9D9C" d="M160-1.25c-3.333,0-6.667,0-10,0c-1.611,0-1.611,2.5,0,2.5c3.333,0,6.667,0,10,0
				C161.611,1.25,161.611-1.25,160-1.25L160-1.25z"/>
		</g>
	</g>
	<g>
		<g>
			<path fill="#9D9D9C" d="M200-1.25c-3.333,0-6.667,0-10,0c-1.611,0-1.611,2.5,0,2.5c3.333,0,6.667,0,10,0
				C201.611,1.25,201.611-1.25,200-1.25L200-1.25z"/>
		</g>
	</g>
	<g>
		<g>
			<path fill="#9D9D9C" d="M201.25,40c0-3.333,0-6.667,0-10c0-1.612-2.5-1.612-2.5,0c0,3.333,0,6.667,0,10
				C198.75,41.612,201.25,41.612,201.25,40L201.25,40z"/>
		</g>
	</g>
	<g>
		<g>
			<path fill="#9D9D9C" d="M201.25,80c0-3.333,0-6.667,0-10c0-1.611-2.5-1.611-2.5,0c0,3.333,0,6.667,0,10
				C198.75,81.611,201.25,81.611,201.25,80L201.25,80z"/>
		</g>
	</g>
	<g>
		<g>
			<path fill="#9D9D9C" d="M190,98.75c-3.333,0-6.667,0-10,0c-1.611,0-1.611,2.5,0,2.5c3.333,0,6.667,0,10,0
				C191.611,101.25,191.611,98.75,190,98.75L190,98.75z"/>
		</g>
	</g>
	<g>
		<g>
			<path fill="#9D9D9C" d="M150,98.75c-3.333,0-6.667,0-10,0c-1.611,0-1.611,2.5,0,2.5c3.333,0,6.667,0,10,0
				C151.611,101.25,151.611,98.75,150,98.75L150,98.75z"/>
		</g>
	</g>
	<g>
		<g>
			<path fill="#9D9D9C" d="M110,98.75c-3.333,0-6.667,0-10,0c-1.612,0-1.612,2.5,0,2.5c3.333,0,6.667,0,10,0
				C111.611,101.25,111.611,98.75,110,98.75L110,98.75z"/>
		</g>
	</g>
	<g>
		<g>
			<path fill="#9D9D9C" d="M70,98.75c-3.333,0-6.667,0-10,0c-1.612,0-1.612,2.5,0,2.5c3.333,0,6.667,0,10,0
				C71.612,101.25,71.612,98.75,70,98.75L70,98.75z"/>
		</g>
	</g>
	<g>
		<g>
			<path fill="#9D9D9C" d="M50,98.75c-3.333,0-6.667,0-10,0c-1.612,0-1.612,2.5,0,2.5c3.333,0,6.667,0,10,0
				C51.612,101.25,51.612,98.75,50,98.75L50,98.75z"/>
		</g>
	</g>
	<g>
		<g>
			<path fill="#9D9D9C" d="M10,98.75c-3.333,0-6.667,0-10,0c-1.612,0-1.612,2.5,0,2.5c3.333,0,6.667,0,10,0
				C11.612,101.25,11.612,98.75,10,98.75L10,98.75z"/>
		</g>
	</g>
	<g>
		<g>
			<path fill="#9D9D9C" d="M1.25,70c0-3.333,0-6.667,0-10c0-1.611-2.5-1.611-2.5,0c0,3.333,0,6.667,0,10
				C-1.25,71.611,1.25,71.611,1.25,70L1.25,70z"/>
		</g>
	</g>
	<g>
		<g>
			<path fill="#9D9D9C" d="M1.25,30c0-3.333,0-6.667,0-10c0-1.612-2.5-1.612-2.5,0c0,3.333,0,6.667,0,10
				C-1.25,31.612,1.25,31.612,1.25,30L1.25,30z"/>
		</g>
	</g>
	<g>
		<g>
			<path fill="#9D9D9C" d="M1.25,10c0-3.333,0-6.667,0-10c0-1.612-2.5-1.612-2.5,0c0,3.333,0,6.667,0,10
				C-1.25,11.612,1.25,11.612,1.25,10L1.25,10z"/>
		</g>
	</g>
	<g>
		<g>
			<path fill="#9D9D9C" d="M1.25,50c0-3.333,0-6.667,0-10c0-1.612-2.5-1.612-2.5,0c0,3.333,0,6.667,0,10
				C-1.25,51.611,1.25,51.611,1.25,50L1.25,50z"/>
		</g>
	</g>
	<g>
		<g>
			<path fill="#9D9D9C" d="M1.25,90c0-3.333,0-6.667,0-10c0-1.611-2.5-1.611-2.5,0c0,3.333,0,6.667,0,10
				C-1.25,91.611,1.25,91.611,1.25,90L1.25,90z"/>
		</g>
	</g>
	<g>
		<g>
			<path fill="#9D9D9C" d="M30,98.75c-3.333,0-6.667,0-10,0c-1.612,0-1.612,2.5,0,2.5c3.333,0,6.667,0,10,0
				C31.612,101.25,31.612,98.75,30,98.75L30,98.75z"/>
		</g>
	</g>
	<g>
		<g>
			<path fill="#9D9D9C" d="M90,98.75c-3.333,0-6.667,0-10,0c-1.612,0-1.612,2.5,0,2.5c3.333,0,6.667,0,10,0
				C91.612,101.25,91.612,98.75,90,98.75L90,98.75z"/>
		</g>
	</g>
	<g>
		<g>
			<path fill="#9D9D9C" d="M130,98.75c-3.333,0-6.667,0-10,0c-1.611,0-1.611,2.5,0,2.5c3.333,0,6.667,0,10,0
				C131.611,101.25,131.611,98.75,130,98.75L130,98.75z"/>
		</g>
	</g>
	<g>
		<g>
			<path fill="#9D9D9C" d="M170,98.75c-3.333,0-6.667,0-10,0c-1.611,0-1.611,2.5,0,2.5c3.333,0,6.667,0,10,0
				C171.611,101.25,171.611,98.75,170,98.75L170,98.75z"/>
		</g>
	</g>
	<g>
		<g>
			<path fill="#9D9D9C" d="M201.25,100c0-3.333,0-6.667,0-10c0-1.611-2.5-1.611-2.5,0c0,3.333,0,6.667,0,10
				C198.75,101.611,201.25,101.611,201.25,100L201.25,100z"/>
		</g>
	</g>
	<g>
		<g>
			<path fill="#9D9D9C" d="M201.25,60c0-3.333,0-6.667,0-10c0-1.612-2.5-1.612-2.5,0c0,3.333,0,6.667,0,10
				C198.75,61.611,201.25,61.611,201.25,60L201.25,60z"/>
		</g>
	</g>
	<g>
		<g>
			<path fill="#9D9D9C" d="M201.25,20c0-3.333,0-6.667,0-10c0-1.612-2.5-1.612-2.5,0c0,3.333,0,6.667,0,10
				C198.75,21.612,201.25,21.612,201.25,20L201.25,20z"/>
		</g>
	</g>
	<g>
		<g>
			<path fill="#9D9D9C" d="M180-1.25c-3.333,0-6.667,0-10,0c-1.611,0-1.611,2.5,0,2.5c3.333,0,6.667,0,10,0
				C181.611,1.25,181.611-1.25,180-1.25L180-1.25z"/>
		</g>
	</g>
	<g>
		<g>
			<path fill="#9D9D9C" d="M120-1.25c-3.333,0-6.667,0-10,0c-1.611,0-1.611,2.5,0,2.5c3.333,0,6.667,0,10,0
				C121.611,1.25,121.611-1.25,120-1.25L120-1.25z"/>
		</g>
	</g>
	<g>
		<g>
			<path fill="#9D9D9C" d="M80-1.25c-3.333,0-6.667,0-10,0c-1.612,0-1.612,2.5,0,2.5c3.333,0,6.667,0,10,0
				C81.612,1.25,81.612-1.25,80-1.25L80-1.25z"/>
		</g>
	</g>
	<g>
		<g>
			<path fill="#9D9D9C" d="M40-1.25c-3.333,0-6.667,0-10,0c-1.612,0-1.612,2.5,0,2.5c3.333,0,6.667,0,10,0
				C41.612,1.25,41.612-1.25,40-1.25L40-1.25z"/>
		</g>
	</g>
</g>
<g>
	<g>
		<g>
			<path fill="#706F6F" d="M190,88.75c-49.992,0-99.985,0-149.977,0c-10.008,0-20.015,0-30.023,0c0.417,0.417,0.833,0.833,1.25,1.25
				c0-26.667,0-53.333,0-80c-0.417,0.417-0.833,0.833-1.25,1.25c49.992,0,99.984,0,149.979,0c10.006,0,20.016,0,30.021,0
				c-0.417-0.417-0.833-0.833-1.25-1.25c0,26.667,0,53.333,0,80c0,1.611,2.5,1.611,2.5,0c0-26.667,0-53.333,0-80
				c0-0.682-0.568-1.25-1.25-1.25c-49.992,0-99.985,0-149.977,0c-10.008,0-20.015,0-30.023,0c-0.682,0-1.25,0.568-1.25,1.25
				c0,26.667,0,53.333,0,80c0,0.682,0.568,1.25,1.25,1.25c49.992,0,99.984,0,149.979,0c10.006,0,20.016,0,30.021,0
				C191.611,91.25,191.611,88.75,190,88.75z"/>
		</g>
	</g>
	<g>
		<g>
			<g>
				<path fill="#706F6F" d="M32,18.75c-4,0-8,0-12,0c-0.682,0-1.25,0.568-1.25,1.25c0,4,0,8,0,12c0,1.612,2.5,1.612,2.5,0
					c0-4,0-8,0-12c-0.417,0.417-0.833,0.833-1.25,1.25c4,0,8,0,12,0C33.612,21.25,33.612,18.75,32,18.75L32,18.75z"/>
			</g>
		</g>
		<g>
			<g>
				<path fill="#706F6F" d="M19.116,20.884c5,5,10,10,15,15c1.141,1.141,2.909-0.627,1.768-1.768c-5-5-10-10-15-15
					C19.743,17.975,17.975,19.743,19.116,20.884L19.116,20.884z"/>
			</g>
		</g>
	</g>
	<g>
		<g>
			<g>
				<path fill="#706F6F" d="M32,78.75c-4,0-8,0-12,0c0.417,0.417,0.833,0.833,1.25,1.25c0-4,0-8,0-12c0-1.611-2.5-1.611-2.5,0
					c0,4,0,8,0,12c0,0.682,0.568,1.25,1.25,1.25c4,0,8,0,12,0C33.612,81.25,33.612,78.75,32,78.75L32,78.75z"/>
			</g>
		</g>
		<g>
			<g>
				<path fill="#706F6F" d="M20.884,80.884c5-5,10-10,15-15c1.141-1.141-0.627-2.907-1.768-1.768c-5,5-10,10-15,15
					C17.975,80.257,19.743,82.023,20.884,80.884L20.884,80.884z"/>
			</g>
		</g>
	</g>
	<g>
		<g>
			<g>
				<path fill="#706F6F" d="M168,21.25c4,0,8,0,12,0c-0.416-0.417-0.834-0.833-1.25-1.25c0,4,0,8,0,12c0,1.612,2.5,1.612,2.5,0
					c0-4,0-8,0-12c0-0.682-0.568-1.25-1.25-1.25c-4,0-8,0-12,0C166.389,18.75,166.389,21.25,168,21.25L168,21.25z"/>
			</g>
		</g>
		<g>
			<g>
				<path fill="#706F6F" d="M179.116,19.116c-5,5-10,10-15,15c-1.142,1.141,0.627,2.909,1.768,1.768c5-5,10-10,15-15
					C182.025,19.743,180.257,17.975,179.116,19.116L179.116,19.116z"/>
			</g>
		</g>
	</g>
	<g>
		<g>
			<g>
				<path fill="#706F6F" d="M168,81.25c4,0,8,0,12,0c0.682,0,1.25-0.568,1.25-1.25c0-4,0-8,0-12c0-1.611-2.5-1.611-2.5,0
					c0,4,0,8,0,12c0.416-0.417,0.834-0.833,1.25-1.25c-4,0-8,0-12,0C166.389,78.75,166.389,81.25,168,81.25L168,81.25z"/>
			</g>
		</g>
		<g>
			<g>
				<path fill="#706F6F" d="M180.884,79.116c-5-5-10-10-15-15c-1.141-1.142-2.909,0.627-1.768,1.768c5,5,10,10,15,15
					C180.257,82.023,182.025,80.257,180.884,79.116L180.884,79.116z"/>
			</g>
		</g>
	</g>
</g>
</svg>
