<?xml version="1.0" encoding="utf-8"?>
<!-- Generator: Adobe Illustrator 16.0.2, SVG Export Plug-In . SVG Version: 6.00 Build 0)  -->
<!DOCTYPE svg PUBLIC "-//W3C//DTD SVG 1.1//EN" "http://www.w3.org/Graphics/SVG/1.1/DTD/svg11.dtd">
<svg version="1.1" id="Layer_1" xmlns="http://www.w3.org/2000/svg" xmlns:xlink="http://www.w3.org/1999/xlink" x="0px" y="0px"
	 width="100px" height="100px" viewBox="0 0 100 100" enable-background="new 0 0 100 100" xml:space="preserve">
<path fill="#706F6F" d="M41.737,73.207c-7.185,0-14.086,0.005-20.987-0.003c-6.227-0.006-10.691-4.339-10.716-10.554
	C9.985,50.526,9.993,38.402,10.03,26.28c0.02-6.258,4.371-10.602,10.639-10.61c19.549-0.028,39.098-0.028,58.646,0
	c6.273,0.009,10.628,4.336,10.65,10.594c0.042,12.124,0.05,24.249-0.003,36.371c-0.026,6.238-4.476,10.563-10.701,10.569
	c-6.901,0.008-13.801,0.003-20.982,0.003c0.884,1.789,1.643,3.446,2.533,5.028c0.181,0.32,0.851,0.498,1.302,0.512
	c2.027,0.053,4.059,0.004,6.089,0.027c1.929,0.023,3.087,1.069,3.107,2.749c0.021,1.695-1.128,2.813-3.036,2.816
	c-12.182,0.017-24.364,0.017-36.545,0c-1.911-0.003-3.058-1.112-3.043-2.81c0.016-1.694,1.155-2.729,3.098-2.754
	c2.03-0.023,4.063,0.047,6.089-0.043c0.515-0.022,1.227-0.372,1.473-0.79C40.188,76.506,40.863,74.974,41.737,73.207z
	 M49.926,21.268c-9.568,0-19.137-0.004-28.706,0.001c-3.908,0.002-5.587,1.682-5.59,5.611c-0.008,11.714-0.009,23.428,0,35.143
	c0.003,3.877,1.757,5.604,5.648,5.605c19.137,0.002,38.275,0.002,57.411,0c3.976-0.002,5.679-1.718,5.681-5.751
	c0.006-11.598,0.005-23.196,0.001-34.793c-0.003-4.184-1.614-5.814-5.738-5.815C69.063,21.265,59.494,21.268,49.926,21.268z"/>
</svg>
