<?xml version="1.0" encoding="utf-8"?>
<!-- Generator: Adobe Illustrator 16.0.2, SVG Export Plug-In . SVG Version: 6.00 Build 0)  -->
<!DOCTYPE svg PUBLIC "-//W3C//DTD SVG 1.1//EN" "http://www.w3.org/Graphics/SVG/1.1/DTD/svg11.dtd">
<svg version="1.1" id="Layer_1" xmlns="http://www.w3.org/2000/svg" xmlns:xlink="http://www.w3.org/1999/xlink" x="0px" y="0px"
	 width="200px" height="100px" viewBox="0 0 200 100" enable-background="new 0 0 200 100" xml:space="preserve">
<g>
	<g>
		<g>
			<path fill="#9D9D9C" d="M20-1.25c-3.333,0-6.667,0-10,0c-1.612,0-1.612,2.5,0,2.5c3.333,0,6.667,0,10,0
				C21.612,1.25,21.612-1.25,20-1.25L20-1.25z"/>
		</g>
	</g>
	<g>
		<g>
			<path fill="#9D9D9C" d="M60-1.25c-3.333,0-6.667,0-10,0c-1.612,0-1.612,2.5,0,2.5c3.333,0,6.667,0,10,0
				C61.612,1.25,61.612-1.25,60-1.25L60-1.25z"/>
		</g>
	</g>
	<g>
		<g>
			<path fill="#9D9D9C" d="M100-1.25c-3.333,0-6.667,0-10,0c-1.612,0-1.612,2.5,0,2.5c3.333,0,6.667,0,10,0
				C101.611,1.25,101.611-1.25,100-1.25L100-1.25z"/>
		</g>
	</g>
	<g>
		<g>
			<path fill="#9D9D9C" d="M140-1.25c-3.333,0-6.667,0-10,0c-1.611,0-1.611,2.5,0,2.5c3.333,0,6.667,0,10,0
				C141.611,1.25,141.611-1.25,140-1.25L140-1.25z"/>
		</g>
	</g>
	<g>
		<g>
			<path fill="#9D9D9C" d="M160-1.25c-3.333,0-6.667,0-10,0c-1.611,0-1.611,2.5,0,2.5c3.333,0,6.667,0,10,0
				C161.611,1.25,161.611-1.25,160-1.25L160-1.25z"/>
		</g>
	</g>
	<g>
		<g>
			<path fill="#9D9D9C" d="M200-1.25c-3.333,0-6.667,0-10,0c-1.611,0-1.611,2.5,0,2.5c3.333,0,6.667,0,10,0
				C201.611,1.25,201.611-1.25,200-1.25L200-1.25z"/>
		</g>
	</g>
	<g>
		<g>
			<path fill="#9D9D9C" d="M201.25,40c0-3.333,0-6.667,0-10c0-1.612-2.5-1.612-2.5,0c0,3.333,0,6.667,0,10
				C198.75,41.612,201.25,41.612,201.25,40L201.25,40z"/>
		</g>
	</g>
	<g>
		<g>
			<path fill="#9D9D9C" d="M201.25,80c0-3.333,0-6.667,0-10c0-1.611-2.5-1.611-2.5,0c0,3.333,0,6.667,0,10
				C198.75,81.611,201.25,81.611,201.25,80L201.25,80z"/>
		</g>
	</g>
	<g>
		<g>
			<path fill="#9D9D9C" d="M190,98.75c-3.333,0-6.667,0-10,0c-1.611,0-1.611,2.5,0,2.5c3.333,0,6.667,0,10,0
				C191.611,101.25,191.611,98.75,190,98.75L190,98.75z"/>
		</g>
	</g>
	<g>
		<g>
			<path fill="#9D9D9C" d="M150,98.75c-3.333,0-6.667,0-10,0c-1.611,0-1.611,2.5,0,2.5c3.333,0,6.667,0,10,0
				C151.611,101.25,151.611,98.75,150,98.75L150,98.75z"/>
		</g>
	</g>
	<g>
		<g>
			<path fill="#9D9D9C" d="M110,98.75c-3.333,0-6.667,0-10,0c-1.612,0-1.612,2.5,0,2.5c3.333,0,6.667,0,10,0
				C111.611,101.25,111.611,98.75,110,98.75L110,98.75z"/>
		</g>
	</g>
	<g>
		<g>
			<path fill="#9D9D9C" d="M70,98.75c-3.333,0-6.667,0-10,0c-1.612,0-1.612,2.5,0,2.5c3.333,0,6.667,0,10,0
				C71.612,101.25,71.612,98.75,70,98.75L70,98.75z"/>
		</g>
	</g>
	<g>
		<g>
			<path fill="#9D9D9C" d="M50,98.75c-3.333,0-6.667,0-10,0c-1.612,0-1.612,2.5,0,2.5c3.333,0,6.667,0,10,0
				C51.612,101.25,51.612,98.75,50,98.75L50,98.75z"/>
		</g>
	</g>
	<g>
		<g>
			<path fill="#9D9D9C" d="M10,98.75c-3.333,0-6.667,0-10,0c-1.612,0-1.612,2.5,0,2.5c3.333,0,6.667,0,10,0
				C11.612,101.25,11.612,98.75,10,98.75L10,98.75z"/>
		</g>
	</g>
	<g>
		<g>
			<path fill="#9D9D9C" d="M1.25,70c0-3.333,0-6.667,0-10c0-1.611-2.5-1.611-2.5,0c0,3.333,0,6.667,0,10
				C-1.25,71.611,1.25,71.611,1.25,70L1.25,70z"/>
		</g>
	</g>
	<g>
		<g>
			<path fill="#9D9D9C" d="M1.25,30c0-3.333,0-6.667,0-10c0-1.612-2.5-1.612-2.5,0c0,3.333,0,6.667,0,10
				C-1.25,31.612,1.25,31.612,1.25,30L1.25,30z"/>
		</g>
	</g>
	<g>
		<g>
			<path fill="#9D9D9C" d="M1.25,10c0-3.333,0-6.667,0-10c0-1.612-2.5-1.612-2.5,0c0,3.333,0,6.667,0,10
				C-1.25,11.612,1.25,11.612,1.25,10L1.25,10z"/>
		</g>
	</g>
	<g>
		<g>
			<path fill="#9D9D9C" d="M1.25,50c0-3.333,0-6.667,0-10c0-1.612-2.5-1.612-2.5,0c0,3.333,0,6.667,0,10
				C-1.25,51.611,1.25,51.611,1.25,50L1.25,50z"/>
		</g>
	</g>
	<g>
		<g>
			<path fill="#9D9D9C" d="M1.25,90c0-3.333,0-6.667,0-10c0-1.611-2.5-1.611-2.5,0c0,3.333,0,6.667,0,10
				C-1.25,91.611,1.25,91.611,1.25,90L1.25,90z"/>
		</g>
	</g>
	<g>
		<g>
			<path fill="#9D9D9C" d="M30,98.75c-3.333,0-6.667,0-10,0c-1.612,0-1.612,2.5,0,2.5c3.333,0,6.667,0,10,0
				C31.612,101.25,31.612,98.75,30,98.75L30,98.75z"/>
		</g>
	</g>
	<g>
		<g>
			<path fill="#9D9D9C" d="M90,98.75c-3.333,0-6.667,0-10,0c-1.612,0-1.612,2.5,0,2.5c3.333,0,6.667,0,10,0
				C91.612,101.25,91.612,98.75,90,98.75L90,98.75z"/>
		</g>
	</g>
	<g>
		<g>
			<path fill="#9D9D9C" d="M130,98.75c-3.333,0-6.667,0-10,0c-1.611,0-1.611,2.5,0,2.5c3.333,0,6.667,0,10,0
				C131.611,101.25,131.611,98.75,130,98.75L130,98.75z"/>
		</g>
	</g>
	<g>
		<g>
			<path fill="#9D9D9C" d="M170,98.75c-3.333,0-6.667,0-10,0c-1.611,0-1.611,2.5,0,2.5c3.333,0,6.667,0,10,0
				C171.611,101.25,171.611,98.75,170,98.75L170,98.75z"/>
		</g>
	</g>
	<g>
		<g>
			<path fill="#9D9D9C" d="M201.25,100c0-3.333,0-6.667,0-10c0-1.611-2.5-1.611-2.5,0c0,3.333,0,6.667,0,10
				C198.75,101.611,201.25,101.611,201.25,100L201.25,100z"/>
		</g>
	</g>
	<g>
		<g>
			<path fill="#9D9D9C" d="M201.25,60c0-3.333,0-6.667,0-10c0-1.612-2.5-1.612-2.5,0c0,3.333,0,6.667,0,10
				C198.75,61.611,201.25,61.611,201.25,60L201.25,60z"/>
		</g>
	</g>
	<g>
		<g>
			<path fill="#9D9D9C" d="M201.25,20c0-3.333,0-6.667,0-10c0-1.612-2.5-1.612-2.5,0c0,3.333,0,6.667,0,10
				C198.75,21.612,201.25,21.612,201.25,20L201.25,20z"/>
		</g>
	</g>
	<g>
		<g>
			<path fill="#9D9D9C" d="M180-1.25c-3.333,0-6.667,0-10,0c-1.611,0-1.611,2.5,0,2.5c3.333,0,6.667,0,10,0
				C181.611,1.25,181.611-1.25,180-1.25L180-1.25z"/>
		</g>
	</g>
	<g>
		<g>
			<path fill="#9D9D9C" d="M120-1.25c-3.333,0-6.667,0-10,0c-1.611,0-1.611,2.5,0,2.5c3.333,0,6.667,0,10,0
				C121.611,1.25,121.611-1.25,120-1.25L120-1.25z"/>
		</g>
	</g>
	<g>
		<g>
			<path fill="#9D9D9C" d="M80-1.25c-3.333,0-6.667,0-10,0c-1.612,0-1.612,2.5,0,2.5c3.333,0,6.667,0,10,0
				C81.612,1.25,81.612-1.25,80-1.25L80-1.25z"/>
		</g>
	</g>
	<g>
		<g>
			<path fill="#9D9D9C" d="M40-1.25c-3.333,0-6.667,0-10,0c-1.612,0-1.612,2.5,0,2.5c3.333,0,6.667,0,10,0
				C41.612,1.25,41.612-1.25,40-1.25L40-1.25z"/>
		</g>
	</g>
</g>
<g>
	<path fill-rule="evenodd" clip-rule="evenodd" fill="#706F6F" d="M98.103,58.369c0-5.605,0-11.114,0-16.937
		c-0.829,0.826-1.456,1.559-2.196,2.15c-0.473,0.377-1.148,0.807-1.668,0.737c-0.565-0.076-1.299-0.604-1.512-1.12
		c-0.208-0.504-0.073-1.445,0.293-1.843c1.845-2.004,3.796-3.911,5.75-5.812c0.754-0.733,1.713-0.724,2.477,0.02
		c1.931,1.877,3.833,3.782,5.709,5.712c0.764,0.785,0.696,1.82-0.044,2.557c-0.74,0.734-1.751,0.768-2.561,0.025
		c-0.79-0.721-1.533-1.491-2.438-2.378c0,5.756,0,11.283,0,17.076c0.806-0.803,1.46-1.463,2.122-2.113
		c1.032-1.014,2.013-1.107,2.859-0.281c0.875,0.85,0.788,1.864-0.271,2.931c-1.682,1.692-3.367,3.381-5.062,5.059
		c-1.151,1.141-1.987,1.133-3.148-0.021c-1.716-1.705-3.43-3.415-5.132-5.133c-0.958-0.968-1.028-1.956-0.233-2.784
		c0.827-0.862,1.851-0.802,2.859,0.177c0.635,0.617,1.259,1.248,1.892,1.867C97.84,58.298,97.918,58.304,98.103,58.369z"/>
	<g>
		<g>
			<g>
				<path fill="#706F6F" d="M35,51.25c3.333,0,6.667,0,10,0c1.612,0,1.612-2.5,0-2.5c-3.333,0-6.667,0-10,0
					C33.388,48.75,33.388,51.25,35,51.25L35,51.25z"/>
			</g>
		</g>
		<g>
			<g>
				<path fill="#706F6F" d="M55,51.25c3.333,0,6.667,0,10,0c1.612,0,1.612-2.5,0-2.5c-3.333,0-6.667,0-10,0
					C53.388,48.75,53.388,51.25,55,51.25L55,51.25z"/>
			</g>
		</g>
		<g>
			<g>
				<path fill="#706F6F" d="M75,51.25c3.333,0,6.667,0,10,0c1.612,0,1.612-2.5,0-2.5c-3.333,0-6.667,0-10,0
					C73.388,48.75,73.388,51.25,75,51.25L75,51.25z"/>
			</g>
		</g>
		<g>
			<g>
				<path fill="#706F6F" d="M115,51.25c3.334,0,6.666,0,10,0c1.611,0,1.611-2.5,0-2.5c-3.334,0-6.666,0-10,0
					C113.388,48.75,113.388,51.25,115,51.25L115,51.25z"/>
			</g>
		</g>
		<g>
			<g>
				<path fill="#706F6F" d="M135,51.25c3.333,0,6.667,0,10,0c1.612,0,1.612-2.5,0-2.5c-3.333,0-6.667,0-10,0
					C133.388,48.75,133.388,51.25,135,51.25L135,51.25z"/>
			</g>
		</g>
		<g>
			<g>
				<path fill="#706F6F" d="M155,51.25c3.333,0,6.667,0,10,0c1.612,0,1.612-2.5,0-2.5c-3.333,0-6.667,0-10,0
					C153.388,48.75,153.388,51.25,155,51.25L155,51.25z"/>
			</g>
		</g>
		<g>
			<g>
				<path fill="#706F6F" d="M175,27.75c-48.285,0-96.571,0-144.856,0c-1.715,0-3.429,0-5.144,0c0.417,0.417,0.833,0.833,1.25,1.25
					c0-6,0-12,0-18c-0.417,0.417-0.833,0.833-1.25,1.25c48.285,0,96.57,0,144.856,0c1.714,0,3.429,0,5.144,0
					c-0.417-0.417-0.833-0.833-1.25-1.25c0,6,0,12,0,18c0,1.612,2.5,1.612,2.5,0c0-6,0-12,0-18c0-0.682-0.568-1.25-1.25-1.25
					c-48.285,0-96.571,0-144.856,0c-1.715,0-3.429,0-5.144,0c-0.682,0-1.25,0.568-1.25,1.25c0,6,0,12,0,18
					c0,0.682,0.568,1.25,1.25,1.25c48.285,0,96.57,0,144.856,0c1.714,0,3.429,0,5.144,0C176.612,30.25,176.612,27.75,175,27.75z"/>
			</g>
		</g>
		<g>
			<g>
				<path fill="#706F6F" d="M175,87.75c-48.285,0-96.571,0-144.856,0c-1.715,0-3.429,0-5.144,0c0.417,0.417,0.833,0.833,1.25,1.25
					c0-6,0-12,0-18c-0.417,0.417-0.833,0.833-1.25,1.25c48.285,0,96.57,0,144.856,0c1.714,0,3.429,0,5.144,0
					c-0.417-0.417-0.833-0.833-1.25-1.25c0,6,0,12,0,18c0,1.612,2.5,1.612,2.5,0c0-6,0-12,0-18c0-0.682-0.568-1.25-1.25-1.25
					c-48.285,0-96.571,0-144.856,0c-1.715,0-3.429,0-5.144,0c-0.682,0-1.25,0.568-1.25,1.25c0,6,0,12,0,18
					c0,0.682,0.568,1.25,1.25,1.25c48.285,0,96.57,0,144.856,0c1.714,0,3.429,0,5.144,0C176.612,90.25,176.612,87.75,175,87.75z"/>
			</g>
		</g>
	</g>
</g>
</svg>
