<?xml version="1.0" encoding="utf-8"?>
<!-- Generator: Adobe Illustrator 16.0.2, SVG Export Plug-In . SVG Version: 6.00 Build 0)  -->
<!DOCTYPE svg PUBLIC "-//W3C//DTD SVG 1.1//EN" "http://www.w3.org/Graphics/SVG/1.1/DTD/svg11.dtd">
<svg version="1.1" id="Layer_1" xmlns="http://www.w3.org/2000/svg" xmlns:xlink="http://www.w3.org/1999/xlink" x="0px" y="0px"
	 width="200px" height="100px" viewBox="0 0 200 100" enable-background="new 0 0 200 100" xml:space="preserve">
<g>
	<g>
		<g>
			<path fill="#9D9D9C" d="M20-1.25c-3.333,0-6.667,0-10,0c-1.612,0-1.612,2.5,0,2.5c3.333,0,6.667,0,10,0
				C21.612,1.25,21.612-1.25,20-1.25L20-1.25z"/>
		</g>
	</g>
	<g>
		<g>
			<path fill="#9D9D9C" d="M60-1.25c-3.333,0-6.667,0-10,0c-1.612,0-1.612,2.5,0,2.5c3.333,0,6.667,0,10,0
				C61.612,1.25,61.612-1.25,60-1.25L60-1.25z"/>
		</g>
	</g>
	<g>
		<g>
			<path fill="#9D9D9C" d="M100-1.25c-3.333,0-6.667,0-10,0c-1.612,0-1.612,2.5,0,2.5c3.333,0,6.667,0,10,0
				C101.611,1.25,101.611-1.25,100-1.25L100-1.25z"/>
		</g>
	</g>
	<g>
		<g>
			<path fill="#9D9D9C" d="M140-1.25c-3.333,0-6.667,0-10,0c-1.611,0-1.611,2.5,0,2.5c3.333,0,6.667,0,10,0
				C141.611,1.25,141.611-1.25,140-1.25L140-1.25z"/>
		</g>
	</g>
	<g>
		<g>
			<path fill="#9D9D9C" d="M160-1.25c-3.333,0-6.667,0-10,0c-1.611,0-1.611,2.5,0,2.5c3.333,0,6.667,0,10,0
				C161.611,1.25,161.611-1.25,160-1.25L160-1.25z"/>
		</g>
	</g>
	<g>
		<g>
			<path fill="#9D9D9C" d="M200-1.25c-3.333,0-6.667,0-10,0c-1.611,0-1.611,2.5,0,2.5c3.333,0,6.667,0,10,0
				C201.611,1.25,201.611-1.25,200-1.25L200-1.25z"/>
		</g>
	</g>
	<g>
		<g>
			<path fill="#9D9D9C" d="M201.25,40c0-3.333,0-6.667,0-10c0-1.612-2.5-1.612-2.5,0c0,3.333,0,6.667,0,10
				C198.75,41.612,201.25,41.612,201.25,40L201.25,40z"/>
		</g>
	</g>
	<g>
		<g>
			<path fill="#9D9D9C" d="M201.25,80c0-3.333,0-6.667,0-10c0-1.611-2.5-1.611-2.5,0c0,3.333,0,6.667,0,10
				C198.75,81.611,201.25,81.611,201.25,80L201.25,80z"/>
		</g>
	</g>
	<g>
		<g>
			<path fill="#9D9D9C" d="M190,98.75c-3.333,0-6.667,0-10,0c-1.611,0-1.611,2.5,0,2.5c3.333,0,6.667,0,10,0
				C191.611,101.25,191.611,98.75,190,98.75L190,98.75z"/>
		</g>
	</g>
	<g>
		<g>
			<path fill="#9D9D9C" d="M150,98.75c-3.333,0-6.667,0-10,0c-1.611,0-1.611,2.5,0,2.5c3.333,0,6.667,0,10,0
				C151.611,101.25,151.611,98.75,150,98.75L150,98.75z"/>
		</g>
	</g>
	<g>
		<g>
			<path fill="#9D9D9C" d="M110,98.75c-3.333,0-6.667,0-10,0c-1.612,0-1.612,2.5,0,2.5c3.333,0,6.667,0,10,0
				C111.611,101.25,111.611,98.75,110,98.75L110,98.75z"/>
		</g>
	</g>
	<g>
		<g>
			<path fill="#9D9D9C" d="M70,98.75c-3.333,0-6.667,0-10,0c-1.612,0-1.612,2.5,0,2.5c3.333,0,6.667,0,10,0
				C71.612,101.25,71.612,98.75,70,98.75L70,98.75z"/>
		</g>
	</g>
	<g>
		<g>
			<path fill="#9D9D9C" d="M50,98.75c-3.333,0-6.667,0-10,0c-1.612,0-1.612,2.5,0,2.5c3.333,0,6.667,0,10,0
				C51.612,101.25,51.612,98.75,50,98.75L50,98.75z"/>
		</g>
	</g>
	<g>
		<g>
			<path fill="#9D9D9C" d="M10,98.75c-3.333,0-6.667,0-10,0c-1.612,0-1.612,2.5,0,2.5c3.333,0,6.667,0,10,0
				C11.612,101.25,11.612,98.75,10,98.75L10,98.75z"/>
		</g>
	</g>
	<g>
		<g>
			<path fill="#9D9D9C" d="M1.25,70c0-3.333,0-6.667,0-10c0-1.611-2.5-1.611-2.5,0c0,3.333,0,6.667,0,10
				C-1.25,71.611,1.25,71.611,1.25,70L1.25,70z"/>
		</g>
	</g>
	<g>
		<g>
			<path fill="#9D9D9C" d="M1.25,30c0-3.333,0-6.667,0-10c0-1.612-2.5-1.612-2.5,0c0,3.333,0,6.667,0,10
				C-1.25,31.612,1.25,31.612,1.25,30L1.25,30z"/>
		</g>
	</g>
	<g>
		<g>
			<path fill="#9D9D9C" d="M1.25,10c0-3.333,0-6.667,0-10c0-1.612-2.5-1.612-2.5,0c0,3.333,0,6.667,0,10
				C-1.25,11.612,1.25,11.612,1.25,10L1.25,10z"/>
		</g>
	</g>
	<g>
		<g>
			<path fill="#9D9D9C" d="M1.25,50c0-3.333,0-6.667,0-10c0-1.612-2.5-1.612-2.5,0c0,3.333,0,6.667,0,10
				C-1.25,51.611,1.25,51.611,1.25,50L1.25,50z"/>
		</g>
	</g>
	<g>
		<g>
			<path fill="#9D9D9C" d="M1.25,90c0-3.333,0-6.667,0-10c0-1.611-2.5-1.611-2.5,0c0,3.333,0,6.667,0,10
				C-1.25,91.611,1.25,91.611,1.25,90L1.25,90z"/>
		</g>
	</g>
	<g>
		<g>
			<path fill="#9D9D9C" d="M30,98.75c-3.333,0-6.667,0-10,0c-1.612,0-1.612,2.5,0,2.5c3.333,0,6.667,0,10,0
				C31.612,101.25,31.612,98.75,30,98.75L30,98.75z"/>
		</g>
	</g>
	<g>
		<g>
			<path fill="#9D9D9C" d="M90,98.75c-3.333,0-6.667,0-10,0c-1.612,0-1.612,2.5,0,2.5c3.333,0,6.667,0,10,0
				C91.612,101.25,91.612,98.75,90,98.75L90,98.75z"/>
		</g>
	</g>
	<g>
		<g>
			<path fill="#9D9D9C" d="M130,98.75c-3.333,0-6.667,0-10,0c-1.611,0-1.611,2.5,0,2.5c3.333,0,6.667,0,10,0
				C131.611,101.25,131.611,98.75,130,98.75L130,98.75z"/>
		</g>
	</g>
	<g>
		<g>
			<path fill="#9D9D9C" d="M170,98.75c-3.333,0-6.667,0-10,0c-1.611,0-1.611,2.5,0,2.5c3.333,0,6.667,0,10,0
				C171.611,101.25,171.611,98.75,170,98.75L170,98.75z"/>
		</g>
	</g>
	<g>
		<g>
			<path fill="#9D9D9C" d="M201.25,100c0-3.333,0-6.667,0-10c0-1.611-2.5-1.611-2.5,0c0,3.333,0,6.667,0,10
				C198.75,101.611,201.25,101.611,201.25,100L201.25,100z"/>
		</g>
	</g>
	<g>
		<g>
			<path fill="#9D9D9C" d="M201.25,60c0-3.333,0-6.667,0-10c0-1.612-2.5-1.612-2.5,0c0,3.333,0,6.667,0,10
				C198.75,61.611,201.25,61.611,201.25,60L201.25,60z"/>
		</g>
	</g>
	<g>
		<g>
			<path fill="#9D9D9C" d="M201.25,20c0-3.333,0-6.667,0-10c0-1.612-2.5-1.612-2.5,0c0,3.333,0,6.667,0,10
				C198.75,21.612,201.25,21.612,201.25,20L201.25,20z"/>
		</g>
	</g>
	<g>
		<g>
			<path fill="#9D9D9C" d="M180-1.25c-3.333,0-6.667,0-10,0c-1.611,0-1.611,2.5,0,2.5c3.333,0,6.667,0,10,0
				C181.611,1.25,181.611-1.25,180-1.25L180-1.25z"/>
		</g>
	</g>
	<g>
		<g>
			<path fill="#9D9D9C" d="M120-1.25c-3.333,0-6.667,0-10,0c-1.611,0-1.611,2.5,0,2.5c3.333,0,6.667,0,10,0
				C121.611,1.25,121.611-1.25,120-1.25L120-1.25z"/>
		</g>
	</g>
	<g>
		<g>
			<path fill="#9D9D9C" d="M80-1.25c-3.333,0-6.667,0-10,0c-1.612,0-1.612,2.5,0,2.5c3.333,0,6.667,0,10,0
				C81.612,1.25,81.612-1.25,80-1.25L80-1.25z"/>
		</g>
	</g>
	<g>
		<g>
			<path fill="#9D9D9C" d="M40-1.25c-3.333,0-6.667,0-10,0c-1.612,0-1.612,2.5,0,2.5c3.333,0,6.667,0,10,0
				C41.612,1.25,41.612-1.25,40-1.25L40-1.25z"/>
		</g>
	</g>
</g>
<g>
	<path fill-rule="evenodd" clip-rule="evenodd" fill="#706F6F" d="M82.155,90c-3.733,0.017-5.322-2.506-4.164-5.338
		c2.548-6.229,5.19-12.421,7.793-18.628c7.371-17.575,14.714-35.161,22.167-52.7c0.551-1.296,1.701-2.73,2.924-3.22
		c0.951-0.38,3.006,0.246,3.566,1.09c0.704,1.063,0.899,3.003,0.425,4.218c-2.687,6.871-5.641,13.638-8.5,20.44
		c-7.133,16.97-14.277,33.937-21.384,50.918C84.245,88.542,83.359,89.973,82.155,90z"/>
	<path fill-rule="evenodd" clip-rule="evenodd" fill="#706F6F" d="M49.456,49.94c7.09,7.086,13.98,13.971,20.864,20.863
		c0.629,0.63,1.327,1.234,1.792,1.977c1.027,1.64,0.906,3.326-0.521,4.646c-1.419,1.312-3.09,1.302-4.69,0.212
		c-0.463-0.315-0.833-0.771-1.235-1.173c-7.702-7.699-15.407-15.395-23.102-23.102c-2.576-2.581-2.59-4.25-0.049-6.796
		c7.75-7.766,15.507-15.524,23.272-23.275c2.107-2.104,4.364-2.365,5.945-0.739c1.574,1.617,1.278,3.828-0.846,5.956
		C63.83,35.58,56.759,42.639,49.456,49.94z"/>
	<path fill-rule="evenodd" clip-rule="evenodd" fill="#706F6F" d="M150.477,49.887c-7.08-7.077-13.974-13.967-20.867-20.859
		c-0.516-0.517-1.073-1.005-1.521-1.578c-1.248-1.599-1.137-3.862,0.336-5.048c1.585-1.277,3.301-1.308,4.871,0.053
		c1.103,0.955,2.098,2.036,3.132,3.07c7.069,7.067,14.144,14.13,21.199,21.211c2.143,2.15,2.348,4.015,0.458,5.921
		c-8.121,8.197-16.289,16.352-24.473,24.486c-1.603,1.594-3.814,1.642-5.248,0.304c-1.518-1.414-1.489-3.663,0.087-5.437
		c0.377-0.424,0.801-0.807,1.202-1.21c6.322-6.32,12.644-12.641,18.963-18.965C149.184,51.269,149.724,50.676,150.477,49.887z"/>
</g>
</svg>
