<?xml version="1.0" encoding="utf-8"?>
<!-- Generator: Adobe Illustrator 16.0.2, SVG Export Plug-In . SVG Version: 6.00 Build 0)  -->
<!DOCTYPE svg PUBLIC "-//W3C//DTD SVG 1.1//EN" "http://www.w3.org/Graphics/SVG/1.1/DTD/svg11.dtd">
<svg version="1.1" id="Layer_1" xmlns="http://www.w3.org/2000/svg" xmlns:xlink="http://www.w3.org/1999/xlink" x="0px" y="0px"
	 width="200px" height="100px" viewBox="0 0 200 100" enable-background="new 0 0 200 100" xml:space="preserve">
<g>
	<g>
		<g>
			<path fill="#9D9D9C" d="M20-1.25c-3.333,0-6.667,0-10,0c-1.612,0-1.612,2.5,0,2.5c3.333,0,6.667,0,10,0
				C21.612,1.25,21.612-1.25,20-1.25L20-1.25z"/>
		</g>
	</g>
	<g>
		<g>
			<path fill="#9D9D9C" d="M60-1.25c-3.333,0-6.667,0-10,0c-1.612,0-1.612,2.5,0,2.5c3.333,0,6.667,0,10,0
				C61.612,1.25,61.612-1.25,60-1.25L60-1.25z"/>
		</g>
	</g>
	<g>
		<g>
			<path fill="#9D9D9C" d="M100-1.25c-3.333,0-6.667,0-10,0c-1.612,0-1.612,2.5,0,2.5c3.333,0,6.667,0,10,0
				C101.611,1.25,101.611-1.25,100-1.25L100-1.25z"/>
		</g>
	</g>
	<g>
		<g>
			<path fill="#9D9D9C" d="M140-1.25c-3.333,0-6.667,0-10,0c-1.611,0-1.611,2.5,0,2.5c3.333,0,6.667,0,10,0
				C141.611,1.25,141.611-1.25,140-1.25L140-1.25z"/>
		</g>
	</g>
	<g>
		<g>
			<path fill="#9D9D9C" d="M160-1.25c-3.333,0-6.667,0-10,0c-1.611,0-1.611,2.5,0,2.5c3.333,0,6.667,0,10,0
				C161.611,1.25,161.611-1.25,160-1.25L160-1.25z"/>
		</g>
	</g>
	<g>
		<g>
			<path fill="#9D9D9C" d="M200-1.25c-3.333,0-6.667,0-10,0c-1.611,0-1.611,2.5,0,2.5c3.333,0,6.667,0,10,0
				C201.611,1.25,201.611-1.25,200-1.25L200-1.25z"/>
		</g>
	</g>
	<g>
		<g>
			<path fill="#9D9D9C" d="M201.25,40c0-3.333,0-6.667,0-10c0-1.612-2.5-1.612-2.5,0c0,3.333,0,6.667,0,10
				C198.75,41.612,201.25,41.612,201.25,40L201.25,40z"/>
		</g>
	</g>
	<g>
		<g>
			<path fill="#9D9D9C" d="M201.25,80c0-3.333,0-6.667,0-10c0-1.611-2.5-1.611-2.5,0c0,3.333,0,6.667,0,10
				C198.75,81.611,201.25,81.611,201.25,80L201.25,80z"/>
		</g>
	</g>
	<g>
		<g>
			<path fill="#9D9D9C" d="M190,98.75c-3.333,0-6.667,0-10,0c-1.611,0-1.611,2.5,0,2.5c3.333,0,6.667,0,10,0
				C191.611,101.25,191.611,98.75,190,98.75L190,98.75z"/>
		</g>
	</g>
	<g>
		<g>
			<path fill="#9D9D9C" d="M150,98.75c-3.333,0-6.667,0-10,0c-1.611,0-1.611,2.5,0,2.5c3.333,0,6.667,0,10,0
				C151.611,101.25,151.611,98.75,150,98.75L150,98.75z"/>
		</g>
	</g>
	<g>
		<g>
			<path fill="#9D9D9C" d="M110,98.75c-3.333,0-6.667,0-10,0c-1.612,0-1.612,2.5,0,2.5c3.333,0,6.667,0,10,0
				C111.611,101.25,111.611,98.75,110,98.75L110,98.75z"/>
		</g>
	</g>
	<g>
		<g>
			<path fill="#9D9D9C" d="M70,98.75c-3.333,0-6.667,0-10,0c-1.612,0-1.612,2.5,0,2.5c3.333,0,6.667,0,10,0
				C71.612,101.25,71.612,98.75,70,98.75L70,98.75z"/>
		</g>
	</g>
	<g>
		<g>
			<path fill="#9D9D9C" d="M50,98.75c-3.333,0-6.667,0-10,0c-1.612,0-1.612,2.5,0,2.5c3.333,0,6.667,0,10,0
				C51.612,101.25,51.612,98.75,50,98.75L50,98.75z"/>
		</g>
	</g>
	<g>
		<g>
			<path fill="#9D9D9C" d="M10,98.75c-3.333,0-6.667,0-10,0c-1.612,0-1.612,2.5,0,2.5c3.333,0,6.667,0,10,0
				C11.612,101.25,11.612,98.75,10,98.75L10,98.75z"/>
		</g>
	</g>
	<g>
		<g>
			<path fill="#9D9D9C" d="M1.25,70c0-3.333,0-6.667,0-10c0-1.611-2.5-1.611-2.5,0c0,3.333,0,6.667,0,10
				C-1.25,71.611,1.25,71.611,1.25,70L1.25,70z"/>
		</g>
	</g>
	<g>
		<g>
			<path fill="#9D9D9C" d="M1.25,30c0-3.333,0-6.667,0-10c0-1.612-2.5-1.612-2.5,0c0,3.333,0,6.667,0,10
				C-1.25,31.612,1.25,31.612,1.25,30L1.25,30z"/>
		</g>
	</g>
	<g>
		<g>
			<path fill="#9D9D9C" d="M1.25,10c0-3.333,0-6.667,0-10c0-1.612-2.5-1.612-2.5,0c0,3.333,0,6.667,0,10
				C-1.25,11.612,1.25,11.612,1.25,10L1.25,10z"/>
		</g>
	</g>
	<g>
		<g>
			<path fill="#9D9D9C" d="M1.25,50c0-3.333,0-6.667,0-10c0-1.612-2.5-1.612-2.5,0c0,3.333,0,6.667,0,10
				C-1.25,51.611,1.25,51.611,1.25,50L1.25,50z"/>
		</g>
	</g>
	<g>
		<g>
			<path fill="#9D9D9C" d="M1.25,90c0-3.333,0-6.667,0-10c0-1.611-2.5-1.611-2.5,0c0,3.333,0,6.667,0,10
				C-1.25,91.611,1.25,91.611,1.25,90L1.25,90z"/>
		</g>
	</g>
	<g>
		<g>
			<path fill="#9D9D9C" d="M30,98.75c-3.333,0-6.667,0-10,0c-1.612,0-1.612,2.5,0,2.5c3.333,0,6.667,0,10,0
				C31.612,101.25,31.612,98.75,30,98.75L30,98.75z"/>
		</g>
	</g>
	<g>
		<g>
			<path fill="#9D9D9C" d="M90,98.75c-3.333,0-6.667,0-10,0c-1.612,0-1.612,2.5,0,2.5c3.333,0,6.667,0,10,0
				C91.612,101.25,91.612,98.75,90,98.75L90,98.75z"/>
		</g>
	</g>
	<g>
		<g>
			<path fill="#9D9D9C" d="M130,98.75c-3.333,0-6.667,0-10,0c-1.611,0-1.611,2.5,0,2.5c3.333,0,6.667,0,10,0
				C131.611,101.25,131.611,98.75,130,98.75L130,98.75z"/>
		</g>
	</g>
	<g>
		<g>
			<path fill="#9D9D9C" d="M170,98.75c-3.333,0-6.667,0-10,0c-1.611,0-1.611,2.5,0,2.5c3.333,0,6.667,0,10,0
				C171.611,101.25,171.611,98.75,170,98.75L170,98.75z"/>
		</g>
	</g>
	<g>
		<g>
			<path fill="#9D9D9C" d="M201.25,100c0-3.333,0-6.667,0-10c0-1.611-2.5-1.611-2.5,0c0,3.333,0,6.667,0,10
				C198.75,101.611,201.25,101.611,201.25,100L201.25,100z"/>
		</g>
	</g>
	<g>
		<g>
			<path fill="#9D9D9C" d="M201.25,60c0-3.333,0-6.667,0-10c0-1.612-2.5-1.612-2.5,0c0,3.333,0,6.667,0,10
				C198.75,61.611,201.25,61.611,201.25,60L201.25,60z"/>
		</g>
	</g>
	<g>
		<g>
			<path fill="#9D9D9C" d="M201.25,20c0-3.333,0-6.667,0-10c0-1.612-2.5-1.612-2.5,0c0,3.333,0,6.667,0,10
				C198.75,21.612,201.25,21.612,201.25,20L201.25,20z"/>
		</g>
	</g>
	<g>
		<g>
			<path fill="#9D9D9C" d="M180-1.25c-3.333,0-6.667,0-10,0c-1.611,0-1.611,2.5,0,2.5c3.333,0,6.667,0,10,0
				C181.611,1.25,181.611-1.25,180-1.25L180-1.25z"/>
		</g>
	</g>
	<g>
		<g>
			<path fill="#9D9D9C" d="M120-1.25c-3.333,0-6.667,0-10,0c-1.611,0-1.611,2.5,0,2.5c3.333,0,6.667,0,10,0
				C121.611,1.25,121.611-1.25,120-1.25L120-1.25z"/>
		</g>
	</g>
	<g>
		<g>
			<path fill="#9D9D9C" d="M80-1.25c-3.333,0-6.667,0-10,0c-1.612,0-1.612,2.5,0,2.5c3.333,0,6.667,0,10,0
				C81.612,1.25,81.612-1.25,80-1.25L80-1.25z"/>
		</g>
	</g>
	<g>
		<g>
			<path fill="#9D9D9C" d="M40-1.25c-3.333,0-6.667,0-10,0c-1.612,0-1.612,2.5,0,2.5c3.333,0,6.667,0,10,0
				C41.612,1.25,41.612-1.25,40-1.25L40-1.25z"/>
		</g>
	</g>
</g>
<g>
	<g>
		<g>
			<g>
				<path fill="#706F6F" d="M112.77,29.266c-0.453,6.965-10.431,6.809-10.744-0.138C101.709,22.214,112.468,22.385,112.77,29.266
					c0.08,1.834,2.938,1.842,2.856,0c-0.205-4.702-3.474-7.987-8.163-8.259s-8.033,3.778-8.296,8.121
					c-0.281,4.639,3.888,8.042,8.157,8.338c4.635,0.322,8.025-3.971,8.302-8.2C115.746,27.427,112.889,27.438,112.77,29.266z"/>
			</g>
		</g>
		<g>
			<g>
				<path fill="#706F6F" d="M82.583,37.749C68.98,51.352,55.377,64.954,41.776,78.557c-0.882,0.883-0.237,2.438,1.009,2.438
					c27.206,0,54.41,0,81.617,0c1.244,0,1.89-1.556,1.008-2.438c-13.602-13.604-27.205-27.205-40.806-40.808
					c-1.304-1.304-3.324,0.716-2.02,2.021c13.603,13.603,27.205,27.207,40.807,40.807c0.336-0.813,0.674-1.626,1.012-2.438
					c-27.207,0-54.409,0-81.615,0c0.336,0.813,0.673,1.627,1.01,2.438C57.397,66.973,71,53.371,84.602,39.769
					C85.905,38.465,83.886,36.445,82.583,37.749z"/>
			</g>
		</g>
		<g>
			<g>
				<path fill="#706F6F" d="M108.406,63.573c5.667-5.669,11.335-11.335,17.003-17.003c-0.675,0-1.347,0-2.021,0
					c11.334,11.334,22.67,22.67,34.008,34.006c0.336-0.813,0.67-1.626,1.008-2.438c-11.334,0-22.67,0-34.006,0
					c-1.842,0-1.842,2.854,0,2.854c11.334,0,22.672,0,34.006,0c1.246,0,1.893-1.558,1.012-2.438
					c-11.337-11.336-22.672-22.672-34.007-34.008c-0.55-0.55-1.472-0.55-2.021,0c-5.668,5.667-11.338,11.334-17.005,17.002
					C105.081,62.855,107.104,64.877,108.406,63.573L108.406,63.573z"/>
			</g>
		</g>
	</g>
	<g>
		<g>
			<path fill="#706F6F" d="M190,88.75c-49.992,0-99.985,0-149.977,0c-10.008,0-20.015,0-30.023,0c0.417,0.417,0.833,0.833,1.25,1.25
				c0-26.667,0-53.333,0-80c-0.417,0.417-0.833,0.833-1.25,1.25c49.992,0,99.984,0,149.979,0c10.006,0,20.017,0,30.021,0
				c-0.417-0.417-0.833-0.833-1.25-1.25c0,26.667,0,53.333,0,80c0,1.611,2.5,1.611,2.5,0c0-26.667,0-53.333,0-80
				c0-0.682-0.568-1.25-1.25-1.25c-49.992,0-99.985,0-149.977,0c-10.008,0-20.015,0-30.023,0c-0.682,0-1.25,0.568-1.25,1.25
				c0,26.667,0,53.333,0,80c0,0.682,0.568,1.25,1.25,1.25c49.992,0,99.984,0,149.979,0c10.006,0,20.017,0,30.021,0
				C191.611,91.25,191.611,88.75,190,88.75z"/>
		</g>
	</g>
</g>
</svg>
