<?xml version="1.0" encoding="utf-8"?>
<!-- Generator: Adobe Illustrator 16.0.2, SVG Export Plug-In . SVG Version: 6.00 Build 0)  -->
<!DOCTYPE svg PUBLIC "-//W3C//DTD SVG 1.1//EN" "http://www.w3.org/Graphics/SVG/1.1/DTD/svg11.dtd">
<svg version="1.1" id="Layer_1" xmlns="http://www.w3.org/2000/svg" xmlns:xlink="http://www.w3.org/1999/xlink" x="0px" y="0px"
	 width="200px" height="100px" viewBox="0 0 200 100" enable-background="new 0 0 200 100" xml:space="preserve">
<g>
	<g>
		<g>
			<path fill="#9D9D9C" d="M20-1.25c-3.333,0-6.667,0-10,0c-1.612,0-1.612,2.5,0,2.5c3.333,0,6.667,0,10,0
				C21.612,1.25,21.612-1.25,20-1.25L20-1.25z"/>
		</g>
	</g>
	<g>
		<g>
			<path fill="#9D9D9C" d="M60-1.25c-3.333,0-6.667,0-10,0c-1.612,0-1.612,2.5,0,2.5c3.333,0,6.667,0,10,0
				C61.612,1.25,61.612-1.25,60-1.25L60-1.25z"/>
		</g>
	</g>
	<g>
		<g>
			<path fill="#9D9D9C" d="M100-1.25c-3.333,0-6.667,0-10,0c-1.612,0-1.612,2.5,0,2.5c3.333,0,6.667,0,10,0
				C101.611,1.25,101.611-1.25,100-1.25L100-1.25z"/>
		</g>
	</g>
	<g>
		<g>
			<path fill="#9D9D9C" d="M140-1.25c-3.333,0-6.667,0-10,0c-1.611,0-1.611,2.5,0,2.5c3.333,0,6.667,0,10,0
				C141.611,1.25,141.611-1.25,140-1.25L140-1.25z"/>
		</g>
	</g>
	<g>
		<g>
			<path fill="#9D9D9C" d="M160-1.25c-3.333,0-6.667,0-10,0c-1.611,0-1.611,2.5,0,2.5c3.333,0,6.667,0,10,0
				C161.611,1.25,161.611-1.25,160-1.25L160-1.25z"/>
		</g>
	</g>
	<g>
		<g>
			<path fill="#9D9D9C" d="M200-1.25c-3.333,0-6.667,0-10,0c-1.611,0-1.611,2.5,0,2.5c3.333,0,6.667,0,10,0
				C201.611,1.25,201.611-1.25,200-1.25L200-1.25z"/>
		</g>
	</g>
	<g>
		<g>
			<path fill="#9D9D9C" d="M201.25,40c0-3.333,0-6.667,0-10c0-1.612-2.5-1.612-2.5,0c0,3.333,0,6.667,0,10
				C198.75,41.612,201.25,41.612,201.25,40L201.25,40z"/>
		</g>
	</g>
	<g>
		<g>
			<path fill="#9D9D9C" d="M201.25,80c0-3.333,0-6.667,0-10c0-1.611-2.5-1.611-2.5,0c0,3.333,0,6.667,0,10
				C198.75,81.611,201.25,81.611,201.25,80L201.25,80z"/>
		</g>
	</g>
	<g>
		<g>
			<path fill="#9D9D9C" d="M190,98.75c-3.333,0-6.667,0-10,0c-1.611,0-1.611,2.5,0,2.5c3.333,0,6.667,0,10,0
				C191.611,101.25,191.611,98.75,190,98.75L190,98.75z"/>
		</g>
	</g>
	<g>
		<g>
			<path fill="#9D9D9C" d="M150,98.75c-3.333,0-6.667,0-10,0c-1.611,0-1.611,2.5,0,2.5c3.333,0,6.667,0,10,0
				C151.611,101.25,151.611,98.75,150,98.75L150,98.75z"/>
		</g>
	</g>
	<g>
		<g>
			<path fill="#9D9D9C" d="M110,98.75c-3.333,0-6.667,0-10,0c-1.612,0-1.612,2.5,0,2.5c3.333,0,6.667,0,10,0
				C111.611,101.25,111.611,98.75,110,98.75L110,98.75z"/>
		</g>
	</g>
	<g>
		<g>
			<path fill="#9D9D9C" d="M70,98.75c-3.333,0-6.667,0-10,0c-1.612,0-1.612,2.5,0,2.5c3.333,0,6.667,0,10,0
				C71.612,101.25,71.612,98.75,70,98.75L70,98.75z"/>
		</g>
	</g>
	<g>
		<g>
			<path fill="#9D9D9C" d="M50,98.75c-3.333,0-6.667,0-10,0c-1.612,0-1.612,2.5,0,2.5c3.333,0,6.667,0,10,0
				C51.612,101.25,51.612,98.75,50,98.75L50,98.75z"/>
		</g>
	</g>
	<g>
		<g>
			<path fill="#9D9D9C" d="M10,98.75c-3.333,0-6.667,0-10,0c-1.612,0-1.612,2.5,0,2.5c3.333,0,6.667,0,10,0
				C11.612,101.25,11.612,98.75,10,98.75L10,98.75z"/>
		</g>
	</g>
	<g>
		<g>
			<path fill="#9D9D9C" d="M1.25,70c0-3.333,0-6.667,0-10c0-1.611-2.5-1.611-2.5,0c0,3.333,0,6.667,0,10
				C-1.25,71.611,1.25,71.611,1.25,70L1.25,70z"/>
		</g>
	</g>
	<g>
		<g>
			<path fill="#9D9D9C" d="M1.25,30c0-3.333,0-6.667,0-10c0-1.612-2.5-1.612-2.5,0c0,3.333,0,6.667,0,10
				C-1.25,31.612,1.25,31.612,1.25,30L1.25,30z"/>
		</g>
	</g>
	<g>
		<g>
			<path fill="#9D9D9C" d="M1.25,10c0-3.333,0-6.667,0-10c0-1.612-2.5-1.612-2.5,0c0,3.333,0,6.667,0,10
				C-1.25,11.612,1.25,11.612,1.25,10L1.25,10z"/>
		</g>
	</g>
	<g>
		<g>
			<path fill="#9D9D9C" d="M1.25,50c0-3.333,0-6.667,0-10c0-1.612-2.5-1.612-2.5,0c0,3.333,0,6.667,0,10
				C-1.25,51.611,1.25,51.611,1.25,50L1.25,50z"/>
		</g>
	</g>
	<g>
		<g>
			<path fill="#9D9D9C" d="M1.25,90c0-3.333,0-6.667,0-10c0-1.611-2.5-1.611-2.5,0c0,3.333,0,6.667,0,10
				C-1.25,91.611,1.25,91.611,1.25,90L1.25,90z"/>
		</g>
	</g>
	<g>
		<g>
			<path fill="#9D9D9C" d="M30,98.75c-3.333,0-6.667,0-10,0c-1.612,0-1.612,2.5,0,2.5c3.333,0,6.667,0,10,0
				C31.612,101.25,31.612,98.75,30,98.75L30,98.75z"/>
		</g>
	</g>
	<g>
		<g>
			<path fill="#9D9D9C" d="M90,98.75c-3.333,0-6.667,0-10,0c-1.612,0-1.612,2.5,0,2.5c3.333,0,6.667,0,10,0
				C91.612,101.25,91.612,98.75,90,98.75L90,98.75z"/>
		</g>
	</g>
	<g>
		<g>
			<path fill="#9D9D9C" d="M130,98.75c-3.333,0-6.667,0-10,0c-1.611,0-1.611,2.5,0,2.5c3.333,0,6.667,0,10,0
				C131.611,101.25,131.611,98.75,130,98.75L130,98.75z"/>
		</g>
	</g>
	<g>
		<g>
			<path fill="#9D9D9C" d="M170,98.75c-3.333,0-6.667,0-10,0c-1.611,0-1.611,2.5,0,2.5c3.333,0,6.667,0,10,0
				C171.611,101.25,171.611,98.75,170,98.75L170,98.75z"/>
		</g>
	</g>
	<g>
		<g>
			<path fill="#9D9D9C" d="M201.25,100c0-3.333,0-6.667,0-10c0-1.611-2.5-1.611-2.5,0c0,3.333,0,6.667,0,10
				C198.75,101.611,201.25,101.611,201.25,100L201.25,100z"/>
		</g>
	</g>
	<g>
		<g>
			<path fill="#9D9D9C" d="M201.25,60c0-3.333,0-6.667,0-10c0-1.612-2.5-1.612-2.5,0c0,3.333,0,6.667,0,10
				C198.75,61.611,201.25,61.611,201.25,60L201.25,60z"/>
		</g>
	</g>
	<g>
		<g>
			<path fill="#9D9D9C" d="M201.25,20c0-3.333,0-6.667,0-10c0-1.612-2.5-1.612-2.5,0c0,3.333,0,6.667,0,10
				C198.75,21.612,201.25,21.612,201.25,20L201.25,20z"/>
		</g>
	</g>
	<g>
		<g>
			<path fill="#9D9D9C" d="M180-1.25c-3.333,0-6.667,0-10,0c-1.611,0-1.611,2.5,0,2.5c3.333,0,6.667,0,10,0
				C181.611,1.25,181.611-1.25,180-1.25L180-1.25z"/>
		</g>
	</g>
	<g>
		<g>
			<path fill="#9D9D9C" d="M120-1.25c-3.333,0-6.667,0-10,0c-1.611,0-1.611,2.5,0,2.5c3.333,0,6.667,0,10,0
				C121.611,1.25,121.611-1.25,120-1.25L120-1.25z"/>
		</g>
	</g>
	<g>
		<g>
			<path fill="#9D9D9C" d="M80-1.25c-3.333,0-6.667,0-10,0c-1.612,0-1.612,2.5,0,2.5c3.333,0,6.667,0,10,0
				C81.612,1.25,81.612-1.25,80-1.25L80-1.25z"/>
		</g>
	</g>
	<g>
		<g>
			<path fill="#9D9D9C" d="M40-1.25c-3.333,0-6.667,0-10,0c-1.612,0-1.612,2.5,0,2.5c3.333,0,6.667,0,10,0
				C41.612,1.25,41.612-1.25,40-1.25L40-1.25z"/>
		</g>
	</g>
</g>
<g>
	<g>
		<g>
			<g>
				<path fill="#706F6F" d="M71.266,15.984c-0.397,6.096-9.129,5.959-9.405-0.121C61.586,9.812,71.002,9.962,71.266,15.984
					c0.07,1.605,2.57,1.612,2.5,0c-0.18-4.115-3.04-6.99-7.144-7.228s-7.031,3.306-7.261,7.107c-0.246,4.06,3.403,7.038,7.14,7.298
					c4.056,0.282,7.024-3.476,7.265-7.177C73.871,14.374,71.37,14.384,71.266,15.984z"/>
			</g>
		</g>
		<g>
			<g>
				<path fill="#706F6F" d="M44.847,23.408c-11.905,11.905-23.81,23.81-35.714,35.714c-0.772,0.772-0.207,2.134,0.883,2.134
					c23.81,0,47.619,0,71.429,0c1.09,0,1.655-1.361,0.884-2.134c-11.905-11.905-23.81-23.81-35.714-35.714
					c-1.141-1.141-2.909,0.627-1.768,1.768c11.905,11.905,23.81,23.81,35.714,35.714c0.294-0.711,0.589-1.423,0.884-2.134
					c-23.81,0-47.619,0-71.429,0c0.294,0.711,0.589,1.423,0.884,2.134c11.905-11.905,23.81-23.81,35.714-35.714
					C47.754,24.035,45.987,22.267,44.847,23.408z"/>
			</g>
		</g>
		<g>
			<g>
				<path fill="#706F6F" d="M67.447,46.009c4.96-4.96,9.921-9.92,14.881-14.881c-0.589,0-1.178,0-1.768,0
					c9.92,9.921,19.841,19.841,29.763,29.762c0.295-0.711,0.588-1.423,0.883-2.134c-9.92,0-19.839,0-29.76,0
					c-1.612,0-1.612,2.5,0,2.5c9.92,0,19.84,0,29.76,0c1.09,0,1.656-1.361,0.886-2.134c-9.923-9.921-19.841-19.841-29.762-29.762
					c-0.481-0.481-1.286-0.481-1.768,0c-4.96,4.96-9.921,9.92-14.881,14.881C64.538,45.382,66.307,47.15,67.447,46.009
					L67.447,46.009z"/>
			</g>
		</g>
	</g>
	<g>
		<g>
			<g>
				<path fill="#706F6F" d="M141.197,38.756c-2.5,0-5,0-7.5,0c-1.611,0-1.611,2.5,0,2.5c2.5,0,5,0,7.5,0
					C142.81,41.256,142.81,38.756,141.197,38.756L141.197,38.756z"/>
			</g>
		</g>
		<g>
			<g>
				<path fill="#706F6F" d="M152.447,8.756c-10,0-20,0-30,0c-1.611,0-1.611,2.5,0,2.5c10,0,20,0,30,0
					C154.06,11.256,154.06,8.756,152.447,8.756L152.447,8.756z"/>
			</g>
		</g>
		<g>
			<g>
				<path fill="#706F6F" d="M123.697,14.119c0-1.242,0-2.484,0-3.727c0-1.612-2.5-1.612-2.5,0c0,1.242,0,2.484,0,3.727
					C121.197,15.732,123.697,15.732,123.697,14.119L123.697,14.119z"/>
			</g>
		</g>
		<g>
			<g>
				<path fill="#706F6F" d="M153.697,14.119c0-1.242,0-2.484,0-3.727c0-1.612-2.5-1.612-2.5,0c0,1.242,0,2.484,0,3.727
					C151.197,15.732,153.697,15.732,153.697,14.119L153.697,14.119z"/>
			</g>
		</g>
		<g>
			<g>
				<path fill="#706F6F" d="M136.197,10.006c0,10,0,20,0,30c0,1.612,2.5,1.612,2.5,0c0-10,0-20,0-30
					C138.697,8.394,136.197,8.394,136.197,10.006L136.197,10.006z"/>
			</g>
		</g>
	</g>
	<g>
		<g>
			<path fill="#706F6F" d="M165.016,11.256c8.333,0,16.667,0,25,0c1.611,0,1.611-2.5,0-2.5c-8.333,0-16.667,0-25,0
				C163.404,8.756,163.404,11.256,165.016,11.256L165.016,11.256z"/>
		</g>
	</g>
	<g>
		<g>
			<path fill="#706F6F" d="M165.016,21.256c8.333,0,16.667,0,25,0c1.611,0,1.611-2.5,0-2.5c-8.333,0-16.667,0-25,0
				C163.404,18.756,163.404,21.256,165.016,21.256L165.016,21.256z"/>
		</g>
	</g>
	<g>
		<g>
			<path fill="#706F6F" d="M165.016,31.256c8.333,0,16.667,0,25,0c1.611,0,1.611-2.5,0-2.5c-8.333,0-16.667,0-25,0
				C163.404,28.756,163.404,31.256,165.016,31.256L165.016,31.256z"/>
		</g>
	</g>
	<g>
		<g>
			<path fill="#706F6F" d="M165.016,41.256c8.333,0,16.667,0,25,0c1.611,0,1.611-2.5,0-2.5c-8.333,0-16.667,0-25,0
				C163.404,38.756,163.404,41.256,165.016,41.256L165.016,41.256z"/>
		</g>
	</g>
	<g>
		<g>
			<path fill="#706F6F" d="M120.016,51.256c23.333,0,46.667,0,70,0c1.611,0,1.611-2.5,0-2.5c-23.333,0-46.667,0-70,0
				C118.404,48.756,118.404,51.256,120.016,51.256L120.016,51.256z"/>
		</g>
	</g>
	<g>
		<g>
			<path fill="#706F6F" d="M120.016,61.256c23.333,0,46.667,0,70,0c1.611,0,1.611-2.5,0-2.5c-23.333,0-46.667,0-70,0
				C118.404,58.756,118.404,61.256,120.016,61.256L120.016,61.256z"/>
		</g>
	</g>
	<g>
		<g>
			<path fill="#706F6F" d="M10.016,71.256c49.992,0,99.984,0,149.979,0c10.006,0,20.016,0,30.021,0c1.611,0,1.611-2.5,0-2.5
				c-49.992,0-99.985,0-149.977,0c-10.008,0-20.015,0-30.023,0C8.404,68.756,8.404,71.256,10.016,71.256L10.016,71.256z"/>
		</g>
	</g>
	<g>
		<g>
			<path fill="#706F6F" d="M10.016,81.256c49.992,0,99.984,0,149.979,0c10.006,0,20.016,0,30.021,0c1.611,0,1.611-2.5,0-2.5
				c-49.992,0-99.985,0-149.977,0c-10.008,0-20.015,0-30.023,0C8.404,78.756,8.404,81.256,10.016,81.256L10.016,81.256z"/>
		</g>
	</g>
	<g>
		<g>
			<path fill="#706F6F" d="M10.016,91.256c49.992,0,99.984,0,149.979,0c10.006,0,20.016,0,30.021,0c1.611,0,1.611-2.5,0-2.5
				c-49.992,0-99.985,0-149.977,0c-10.008,0-20.015,0-30.023,0C8.404,88.756,8.404,91.256,10.016,91.256L10.016,91.256z"/>
		</g>
	</g>
</g>
</svg>
