<?xml version="1.0" encoding="utf-8"?>
<!-- Generator: Adobe Illustrator 16.0.2, SVG Export Plug-In . SVG Version: 6.00 Build 0)  -->
<!DOCTYPE svg PUBLIC "-//W3C//DTD SVG 1.1//EN" "http://www.w3.org/Graphics/SVG/1.1/DTD/svg11.dtd">
<svg version="1.1" id="Layer_1" xmlns="http://www.w3.org/2000/svg" xmlns:xlink="http://www.w3.org/1999/xlink" x="0px" y="0px"
	 width="100px" height="100px" viewBox="0 0 100 100" enable-background="new 0 0 100 100" xml:space="preserve">
<g>
	<path fill-rule="evenodd" clip-rule="evenodd" fill="#706F6F" d="M40.016,22.057c0.032-5.438,4.525-9.916,9.964-9.928
		c5.559-0.013,10.125,4.642,10.005,10.198c-0.118,5.436-4.684,9.846-10.118,9.771C44.433,32.024,39.985,27.49,40.016,22.057z"/>
	<path fill-rule="evenodd" clip-rule="evenodd" fill="#706F6F" d="M50.015,62.112c-5.438,0.009-9.948-4.453-9.999-9.893
		c-0.052-5.552,4.576-10.154,10.128-10.076c5.434,0.078,9.877,4.617,9.841,10.05C59.948,57.637,55.458,62.104,50.015,62.112z"/>
	<path fill-rule="evenodd" clip-rule="evenodd" fill="#706F6F" d="M59.985,82.249c-0.06,5.444-4.568,9.895-10.011,9.879
		c-5.56-0.014-10.107-4.692-9.958-10.245c0.146-5.433,4.737-9.823,10.168-9.724C55.616,72.258,60.044,76.817,59.985,82.249z"/>
</g>
</svg>
