<?xml version="1.0" encoding="utf-8"?>
<!-- Generator: Adobe Illustrator 16.0.2, SVG Export Plug-In . SVG Version: 6.00 Build 0)  -->
<!DOCTYPE svg PUBLIC "-//W3C//DTD SVG 1.1//EN" "http://www.w3.org/Graphics/SVG/1.1/DTD/svg11.dtd">
<svg version="1.1" id="Layer_1" xmlns="http://www.w3.org/2000/svg" xmlns:xlink="http://www.w3.org/1999/xlink" x="0px" y="0px"
	 width="100px" height="100px" viewBox="0 0 100 100" enable-background="new 0 0 100 100" xml:space="preserve">
<path fill="#706F6F" d="M72.669,50.004c0,11.04,0.008,22.077-0.003,33.116c-0.004,3.744-1.536,5.994-4.564,6.717
	c-0.597,0.143-1.237,0.154-1.856,0.155C55.414,90,44.584,90.004,33.753,89.994c-3.916-0.002-6.201-2.188-6.41-6.094
	c-0.023-0.416-0.012-0.833-0.012-1.249c0-21.766-0.001-43.531,0.004-65.297c0-0.727,0.028-1.458,0.112-2.18
	c0.339-2.931,2.592-5.127,5.526-5.14c11.351-0.046,22.702-0.046,34.055,0c2.933,0.012,5.189,2.211,5.525,5.142
	c0.088,0.773,0.111,1.558,0.112,2.336C72.672,28.343,72.669,39.173,72.669,50.004z M31.84,19.959c0,17.204,0,34.3,0,51.476
	c12.147,0,24.195,0,36.326,0c0-17.188,0-34.284,0-51.476C56.055,19.959,44.05,19.959,31.84,19.959z M50.001,16.307
	c2.447,0,4.892-0.033,7.336,0.015c1.04,0.021,1.75-0.192,1.715-1.409c-0.031-1.075-0.628-1.396-1.634-1.391
	c-4.942,0.026-9.885,0.026-14.829,0c-1.005-0.005-1.603,0.317-1.635,1.388c-0.036,1.211,0.667,1.434,1.711,1.413
	C45.11,16.274,47.557,16.307,50.001,16.307z M50.055,84.204c2.012-0.03,3.667-1.699,3.659-3.691
	c-0.008-2.051-1.752-3.706-3.844-3.647c-1.994,0.057-3.645,1.788-3.58,3.755C46.356,82.622,48.05,84.232,50.055,84.204z"/>
</svg>
