<?xml version="1.0" encoding="utf-8"?>
<!-- Generator: Adobe Illustrator 16.0.2, SVG Export Plug-In . SVG Version: 6.00 Build 0)  -->
<!DOCTYPE svg PUBLIC "-//W3C//DTD SVG 1.1//EN" "http://www.w3.org/Graphics/SVG/1.1/DTD/svg11.dtd">
<svg version="1.1" id="Layer_1" xmlns="http://www.w3.org/2000/svg" xmlns:xlink="http://www.w3.org/1999/xlink" x="0px" y="0px"
	 width="200px" height="100px" viewBox="0 0 200 100" enable-background="new 0 0 200 100" xml:space="preserve">
<g>
	<g>
		<g>
			<path fill="#9D9D9C" d="M20-1.25c-3.333,0-6.667,0-10,0c-1.612,0-1.612,2.5,0,2.5c3.333,0,6.667,0,10,0
				C21.612,1.25,21.612-1.25,20-1.25L20-1.25z"/>
		</g>
	</g>
	<g>
		<g>
			<path fill="#9D9D9C" d="M60-1.25c-3.333,0-6.667,0-10,0c-1.612,0-1.612,2.5,0,2.5c3.333,0,6.667,0,10,0
				C61.612,1.25,61.612-1.25,60-1.25L60-1.25z"/>
		</g>
	</g>
	<g>
		<g>
			<path fill="#9D9D9C" d="M100-1.25c-3.333,0-6.667,0-10,0c-1.612,0-1.612,2.5,0,2.5c3.333,0,6.667,0,10,0
				C101.611,1.25,101.611-1.25,100-1.25L100-1.25z"/>
		</g>
	</g>
	<g>
		<g>
			<path fill="#9D9D9C" d="M140-1.25c-3.333,0-6.667,0-10,0c-1.611,0-1.611,2.5,0,2.5c3.333,0,6.667,0,10,0
				C141.611,1.25,141.611-1.25,140-1.25L140-1.25z"/>
		</g>
	</g>
	<g>
		<g>
			<path fill="#9D9D9C" d="M160-1.25c-3.333,0-6.667,0-10,0c-1.611,0-1.611,2.5,0,2.5c3.333,0,6.667,0,10,0
				C161.611,1.25,161.611-1.25,160-1.25L160-1.25z"/>
		</g>
	</g>
	<g>
		<g>
			<path fill="#9D9D9C" d="M200-1.25c-3.333,0-6.667,0-10,0c-1.611,0-1.611,2.5,0,2.5c3.333,0,6.667,0,10,0
				C201.611,1.25,201.611-1.25,200-1.25L200-1.25z"/>
		</g>
	</g>
	<g>
		<g>
			<path fill="#9D9D9C" d="M201.25,40c0-3.333,0-6.667,0-10c0-1.612-2.5-1.612-2.5,0c0,3.333,0,6.667,0,10
				C198.75,41.612,201.25,41.612,201.25,40L201.25,40z"/>
		</g>
	</g>
	<g>
		<g>
			<path fill="#9D9D9C" d="M201.25,80c0-3.333,0-6.667,0-10c0-1.611-2.5-1.611-2.5,0c0,3.333,0,6.667,0,10
				C198.75,81.611,201.25,81.611,201.25,80L201.25,80z"/>
		</g>
	</g>
	<g>
		<g>
			<path fill="#9D9D9C" d="M190,98.75c-3.333,0-6.667,0-10,0c-1.611,0-1.611,2.5,0,2.5c3.333,0,6.667,0,10,0
				C191.611,101.25,191.611,98.75,190,98.75L190,98.75z"/>
		</g>
	</g>
	<g>
		<g>
			<path fill="#9D9D9C" d="M150,98.75c-3.333,0-6.667,0-10,0c-1.611,0-1.611,2.5,0,2.5c3.333,0,6.667,0,10,0
				C151.611,101.25,151.611,98.75,150,98.75L150,98.75z"/>
		</g>
	</g>
	<g>
		<g>
			<path fill="#9D9D9C" d="M110,98.75c-3.333,0-6.667,0-10,0c-1.612,0-1.612,2.5,0,2.5c3.333,0,6.667,0,10,0
				C111.611,101.25,111.611,98.75,110,98.75L110,98.75z"/>
		</g>
	</g>
	<g>
		<g>
			<path fill="#9D9D9C" d="M70,98.75c-3.333,0-6.667,0-10,0c-1.612,0-1.612,2.5,0,2.5c3.333,0,6.667,0,10,0
				C71.612,101.25,71.612,98.75,70,98.75L70,98.75z"/>
		</g>
	</g>
	<g>
		<g>
			<path fill="#9D9D9C" d="M50,98.75c-3.333,0-6.667,0-10,0c-1.612,0-1.612,2.5,0,2.5c3.333,0,6.667,0,10,0
				C51.612,101.25,51.612,98.75,50,98.75L50,98.75z"/>
		</g>
	</g>
	<g>
		<g>
			<path fill="#9D9D9C" d="M10,98.75c-3.333,0-6.667,0-10,0c-1.612,0-1.612,2.5,0,2.5c3.333,0,6.667,0,10,0
				C11.612,101.25,11.612,98.75,10,98.75L10,98.75z"/>
		</g>
	</g>
	<g>
		<g>
			<path fill="#9D9D9C" d="M1.25,70c0-3.333,0-6.667,0-10c0-1.611-2.5-1.611-2.5,0c0,3.333,0,6.667,0,10
				C-1.25,71.611,1.25,71.611,1.25,70L1.25,70z"/>
		</g>
	</g>
	<g>
		<g>
			<path fill="#9D9D9C" d="M1.25,30c0-3.333,0-6.667,0-10c0-1.612-2.5-1.612-2.5,0c0,3.333,0,6.667,0,10
				C-1.25,31.612,1.25,31.612,1.25,30L1.25,30z"/>
		</g>
	</g>
	<g>
		<g>
			<path fill="#9D9D9C" d="M1.25,10c0-3.333,0-6.667,0-10c0-1.612-2.5-1.612-2.5,0c0,3.333,0,6.667,0,10
				C-1.25,11.612,1.25,11.612,1.25,10L1.25,10z"/>
		</g>
	</g>
	<g>
		<g>
			<path fill="#9D9D9C" d="M1.25,50c0-3.333,0-6.667,0-10c0-1.612-2.5-1.612-2.5,0c0,3.333,0,6.667,0,10
				C-1.25,51.611,1.25,51.611,1.25,50L1.25,50z"/>
		</g>
	</g>
	<g>
		<g>
			<path fill="#9D9D9C" d="M1.25,90c0-3.333,0-6.667,0-10c0-1.611-2.5-1.611-2.5,0c0,3.333,0,6.667,0,10
				C-1.25,91.611,1.25,91.611,1.25,90L1.25,90z"/>
		</g>
	</g>
	<g>
		<g>
			<path fill="#9D9D9C" d="M30,98.75c-3.333,0-6.667,0-10,0c-1.612,0-1.612,2.5,0,2.5c3.333,0,6.667,0,10,0
				C31.612,101.25,31.612,98.75,30,98.75L30,98.75z"/>
		</g>
	</g>
	<g>
		<g>
			<path fill="#9D9D9C" d="M90,98.75c-3.333,0-6.667,0-10,0c-1.612,0-1.612,2.5,0,2.5c3.333,0,6.667,0,10,0
				C91.612,101.25,91.612,98.75,90,98.75L90,98.75z"/>
		</g>
	</g>
	<g>
		<g>
			<path fill="#9D9D9C" d="M130,98.75c-3.333,0-6.667,0-10,0c-1.611,0-1.611,2.5,0,2.5c3.333,0,6.667,0,10,0
				C131.611,101.25,131.611,98.75,130,98.75L130,98.75z"/>
		</g>
	</g>
	<g>
		<g>
			<path fill="#9D9D9C" d="M170,98.75c-3.333,0-6.667,0-10,0c-1.611,0-1.611,2.5,0,2.5c3.333,0,6.667,0,10,0
				C171.611,101.25,171.611,98.75,170,98.75L170,98.75z"/>
		</g>
	</g>
	<g>
		<g>
			<path fill="#9D9D9C" d="M201.25,100c0-3.333,0-6.667,0-10c0-1.611-2.5-1.611-2.5,0c0,3.333,0,6.667,0,10
				C198.75,101.611,201.25,101.611,201.25,100L201.25,100z"/>
		</g>
	</g>
	<g>
		<g>
			<path fill="#9D9D9C" d="M201.25,60c0-3.333,0-6.667,0-10c0-1.612-2.5-1.612-2.5,0c0,3.333,0,6.667,0,10
				C198.75,61.611,201.25,61.611,201.25,60L201.25,60z"/>
		</g>
	</g>
	<g>
		<g>
			<path fill="#9D9D9C" d="M201.25,20c0-3.333,0-6.667,0-10c0-1.612-2.5-1.612-2.5,0c0,3.333,0,6.667,0,10
				C198.75,21.612,201.25,21.612,201.25,20L201.25,20z"/>
		</g>
	</g>
	<g>
		<g>
			<path fill="#9D9D9C" d="M180-1.25c-3.333,0-6.667,0-10,0c-1.611,0-1.611,2.5,0,2.5c3.333,0,6.667,0,10,0
				C181.611,1.25,181.611-1.25,180-1.25L180-1.25z"/>
		</g>
	</g>
	<g>
		<g>
			<path fill="#9D9D9C" d="M120-1.25c-3.333,0-6.667,0-10,0c-1.611,0-1.611,2.5,0,2.5c3.333,0,6.667,0,10,0
				C121.611,1.25,121.611-1.25,120-1.25L120-1.25z"/>
		</g>
	</g>
	<g>
		<g>
			<path fill="#9D9D9C" d="M80-1.25c-3.333,0-6.667,0-10,0c-1.612,0-1.612,2.5,0,2.5c3.333,0,6.667,0,10,0
				C81.612,1.25,81.612-1.25,80-1.25L80-1.25z"/>
		</g>
	</g>
	<g>
		<g>
			<path fill="#9D9D9C" d="M40-1.25c-3.333,0-6.667,0-10,0c-1.612,0-1.612,2.5,0,2.5c3.333,0,6.667,0,10,0
				C41.612,1.25,41.612-1.25,40-1.25L40-1.25z"/>
		</g>
	</g>
</g>
<g>
	<path fill-rule="evenodd" clip-rule="evenodd" fill="#706F6F" d="M92.058,10.008c8.329,0,16.656-0.009,24.985,0.003
		c5.174,0.007,8.524,3.325,8.531,8.462c0.013,10.46,0.018,20.92-0.005,31.381c-0.008,3.983-2.445,7.036-6.266,7.958
		c-0.448,0.108-1.024,0.325-1.356,0.146c-0.717-0.386-1.312-0.995-1.958-1.514c0.549-0.548,1.017-1.438,1.659-1.588
		c3.471-0.818,4.719-2.238,4.72-5.802c0.006-10.193,0.016-20.388-0.006-30.582c-0.007-3.279-1.953-5.247-5.21-5.25
		c-16.79-0.017-33.58-0.018-50.37,0c-3.238,0.004-5.176,1.991-5.182,5.278c-0.019,10.327-0.019,20.654,0,30.981
		c0.006,3.38,1.95,5.289,5.357,5.31c3.798,0.022,7.596,0.014,11.393,0c1.206-0.005,2.437,0.058,2.407,1.644
		c-0.031,1.587-1.295,1.576-2.479,1.573c-3.93-0.012-7.862,0.023-11.792-0.012c-4.642-0.043-8.077-3.456-8.09-8.096
		c-0.03-10.593-0.029-21.188,0-31.78c0.013-4.647,3.441-8.085,8.078-8.103C75.001,9.984,83.53,10.008,92.058,10.008z"/>
	<path fill-rule="evenodd" clip-rule="evenodd" fill="#706F6F" d="M107.912,89.997c-8.329,0-16.657,0.008-24.985-0.004
		c-5.178-0.007-8.529-3.324-8.542-8.454c-0.015-5.863-0.001-11.726-0.006-17.59c-0.001-1.216-0.135-2.669,1.559-2.687
		c1.854-0.021,1.649,1.53,1.649,2.795c0.002,5.729-0.009,11.46,0.004,17.189c0.009,3.663,1.873,5.537,5.532,5.538
		c16.59,0.01,33.179,0.01,49.769,0c3.543-0.002,5.462-1.895,5.468-5.4c0.016-10.26,0.016-20.52-0.001-30.781
		c-0.005-3.503-1.927-5.367-5.473-5.396c-0.866-0.007-1.801,0.187-2.575-0.081c-0.611-0.21-1.411-0.984-1.416-1.514
		c-0.003-0.527,0.826-1.461,1.38-1.533c7.318-0.956,11.469,2.749,11.348,9.213c-0.188,9.991-0.045,19.986-0.052,29.98
		c-0.004,5.426-3.275,8.717-8.677,8.721C124.567,90.003,116.239,89.997,107.912,89.997z"/>
	<path fill-rule="evenodd" clip-rule="evenodd" fill="#706F6F" d="M108.69,36.229c3.69,0.222,6.561,2.013,8.222,5.499
		c1.666,3.494,1.258,6.897-1.079,9.944c-1.166,1.521-2.556,2.912-4.034,4.131c-0.522,0.429-1.613,0.169-2.443,0.224
		c0.063-0.818-0.158-1.831,0.244-2.413c0.781-1.133,1.94-1.998,2.893-3.021c2.502-2.691,2.461-6.482-0.065-8.964
		c-2.432-2.39-6.266-2.465-8.843-0.091c-1.518,1.396-2.982,2.859-4.371,4.383c-2.252,2.472-2.367,5.688-0.336,8.384
		c0.744,0.987,1.381,1.982,0.154,2.92c-1.283,0.98-2.063-0.1-2.777-0.99c-2.846-3.552-2.819-8.733,0.199-12.12
		c1.769-1.984,3.692-3.84,5.645-5.646C103.886,36.813,106.115,36.198,108.69,36.229z"/>
	<path fill-rule="evenodd" clip-rule="evenodd" fill="#706F6F" d="M106.527,57.219c-0.032,0.397-0.058,0.797-0.099,1.194
		c-0.555,5.435-8.759,12.901-14.143,12.817c-3.981-0.061-6.877-2.001-8.557-5.537c-1.694-3.568-1.173-7.033,1.284-10.104
		c1.077-1.345,2.317-2.604,3.672-3.658c0.537-0.419,1.587-0.175,2.404-0.234c-0.068,0.818,0.145,1.833-0.262,2.411
		c-0.834,1.181-2.031,2.099-3.026,3.175c-2.482,2.686-2.499,6.534-0.073,9.004c2.489,2.534,6.41,2.531,9.136-0.057
		c1.497-1.422,2.955-2.888,4.383-4.38c2.522-2.635,2.749-5.757,0.617-8.679c-0.72-0.987-1.418-2.016-0.15-2.913
		c1.222-0.865,2.235-0.015,2.772,1.038c0.942,1.851,1.684,3.802,2.51,5.71C106.84,57.078,106.684,57.148,106.527,57.219z"/>
	<path fill-rule="evenodd" clip-rule="evenodd" fill="#706F6F" d="M75.953,26.005c1.998,0,3.997,0.016,5.994-0.005
		c1.424-0.015,2.057,0.671,2.046,2.078c-0.021,2.93-0.008,5.86-0.006,8.791c0,1.322-0.667,1.943-1.976,1.941
		c-3.996-0.006-7.992-0.013-11.988,0.003c-1.424,0.006-2.055-0.673-2.044-2.08c0.022-2.93,0.01-5.861,0.006-8.791
		c-0.001-1.324,0.666-1.945,1.975-1.939C71.957,26.012,73.955,26.006,75.953,26.005z M80.736,29.328c-3.235,0-6.312,0-9.409,0
		c0,2.132,0,4.145,0,6.122c3.217,0,6.294,0,9.409,0C80.736,33.38,80.736,31.461,80.736,29.328z"/>
	<path fill-rule="evenodd" clip-rule="evenodd" fill="#706F6F" d="M117.427,80.399c-3.863,0-7.727-0.009-11.59,0.005
		c-1.246,0.003-2.624,0.047-2.602-1.657c0.02-1.55,1.304-1.563,2.495-1.561c7.929,0.012,15.855,0.013,23.783-0.002
		c1.223-0.002,2.445,0.104,2.404,1.657c-0.041,1.549-1.305,1.569-2.499,1.563C125.422,80.389,121.425,80.399,117.427,80.399z"/>
	<path fill-rule="evenodd" clip-rule="evenodd" fill="#706F6F" d="M108.178,19.607c1.931,0,3.877-0.133,5.786,0.068
		c0.708,0.075,1.775,0.84,1.903,1.453c0.251,1.195-0.729,1.689-1.896,1.687c-3.995-0.008-7.992-0.008-11.987,0
		c-1.169,0.002-2.147-0.491-1.895-1.687c0.128-0.613,1.197-1.385,1.902-1.452C104.036,19.481,106.113,19.607,108.178,19.607z"/>
	<path fill-rule="evenodd" clip-rule="evenodd" fill="#706F6F" d="M91.98,80.398c-1.998,0-3.996-0.009-5.994,0.002
		c-1.169,0.007-2.147-0.49-1.895-1.688c0.129-0.611,1.219-1.429,1.898-1.452c3.991-0.138,7.991-0.138,11.982,0
		c0.68,0.023,1.77,0.842,1.898,1.454c0.25,1.195-0.729,1.692-1.896,1.686C95.976,80.39,93.978,80.398,91.98,80.398z"/>
</g>
</svg>
