<?xml version="1.0" encoding="utf-8"?>
<!-- Generator: Adobe Illustrator 16.0.2, SVG Export Plug-In . SVG Version: 6.00 Build 0)  -->
<!DOCTYPE svg PUBLIC "-//W3C//DTD SVG 1.1//EN" "http://www.w3.org/Graphics/SVG/1.1/DTD/svg11.dtd">
<svg version="1.1" id="Layer_1" xmlns="http://www.w3.org/2000/svg" xmlns:xlink="http://www.w3.org/1999/xlink" x="0px" y="0px"
	 width="200px" height="100px" viewBox="0 0 200 100" enable-background="new 0 0 200 100" xml:space="preserve">
<g>
	<g>
		<g>
			<path fill="#9D9D9C" d="M20-1.25c-3.333,0-6.667,0-10,0c-1.612,0-1.612,2.5,0,2.5c3.333,0,6.667,0,10,0
				C21.612,1.25,21.612-1.25,20-1.25L20-1.25z"/>
		</g>
	</g>
	<g>
		<g>
			<path fill="#9D9D9C" d="M60-1.25c-3.333,0-6.667,0-10,0c-1.612,0-1.612,2.5,0,2.5c3.333,0,6.667,0,10,0
				C61.612,1.25,61.612-1.25,60-1.25L60-1.25z"/>
		</g>
	</g>
	<g>
		<g>
			<path fill="#9D9D9C" d="M100-1.25c-3.333,0-6.667,0-10,0c-1.612,0-1.612,2.5,0,2.5c3.333,0,6.667,0,10,0
				C101.611,1.25,101.611-1.25,100-1.25L100-1.25z"/>
		</g>
	</g>
	<g>
		<g>
			<path fill="#9D9D9C" d="M140-1.25c-3.333,0-6.667,0-10,0c-1.611,0-1.611,2.5,0,2.5c3.333,0,6.667,0,10,0
				C141.611,1.25,141.611-1.25,140-1.25L140-1.25z"/>
		</g>
	</g>
	<g>
		<g>
			<path fill="#9D9D9C" d="M160-1.25c-3.333,0-6.667,0-10,0c-1.611,0-1.611,2.5,0,2.5c3.333,0,6.667,0,10,0
				C161.611,1.25,161.611-1.25,160-1.25L160-1.25z"/>
		</g>
	</g>
	<g>
		<g>
			<path fill="#9D9D9C" d="M200-1.25c-3.333,0-6.667,0-10,0c-1.611,0-1.611,2.5,0,2.5c3.333,0,6.667,0,10,0
				C201.611,1.25,201.611-1.25,200-1.25L200-1.25z"/>
		</g>
	</g>
	<g>
		<g>
			<path fill="#9D9D9C" d="M201.25,40c0-3.333,0-6.667,0-10c0-1.612-2.5-1.612-2.5,0c0,3.333,0,6.667,0,10
				C198.75,41.612,201.25,41.612,201.25,40L201.25,40z"/>
		</g>
	</g>
	<g>
		<g>
			<path fill="#9D9D9C" d="M201.25,80c0-3.333,0-6.667,0-10c0-1.611-2.5-1.611-2.5,0c0,3.333,0,6.667,0,10
				C198.75,81.611,201.25,81.611,201.25,80L201.25,80z"/>
		</g>
	</g>
	<g>
		<g>
			<path fill="#9D9D9C" d="M190,98.75c-3.333,0-6.667,0-10,0c-1.611,0-1.611,2.5,0,2.5c3.333,0,6.667,0,10,0
				C191.611,101.25,191.611,98.75,190,98.75L190,98.75z"/>
		</g>
	</g>
	<g>
		<g>
			<path fill="#9D9D9C" d="M150,98.75c-3.333,0-6.667,0-10,0c-1.611,0-1.611,2.5,0,2.5c3.333,0,6.667,0,10,0
				C151.611,101.25,151.611,98.75,150,98.75L150,98.75z"/>
		</g>
	</g>
	<g>
		<g>
			<path fill="#9D9D9C" d="M110,98.75c-3.333,0-6.667,0-10,0c-1.612,0-1.612,2.5,0,2.5c3.333,0,6.667,0,10,0
				C111.611,101.25,111.611,98.75,110,98.75L110,98.75z"/>
		</g>
	</g>
	<g>
		<g>
			<path fill="#9D9D9C" d="M70,98.75c-3.333,0-6.667,0-10,0c-1.612,0-1.612,2.5,0,2.5c3.333,0,6.667,0,10,0
				C71.612,101.25,71.612,98.75,70,98.75L70,98.75z"/>
		</g>
	</g>
	<g>
		<g>
			<path fill="#9D9D9C" d="M50,98.75c-3.333,0-6.667,0-10,0c-1.612,0-1.612,2.5,0,2.5c3.333,0,6.667,0,10,0
				C51.612,101.25,51.612,98.75,50,98.75L50,98.75z"/>
		</g>
	</g>
	<g>
		<g>
			<path fill="#9D9D9C" d="M10,98.75c-3.333,0-6.667,0-10,0c-1.612,0-1.612,2.5,0,2.5c3.333,0,6.667,0,10,0
				C11.612,101.25,11.612,98.75,10,98.75L10,98.75z"/>
		</g>
	</g>
	<g>
		<g>
			<path fill="#9D9D9C" d="M1.25,70c0-3.333,0-6.667,0-10c0-1.611-2.5-1.611-2.5,0c0,3.333,0,6.667,0,10
				C-1.25,71.611,1.25,71.611,1.25,70L1.25,70z"/>
		</g>
	</g>
	<g>
		<g>
			<path fill="#9D9D9C" d="M1.25,30c0-3.333,0-6.667,0-10c0-1.612-2.5-1.612-2.5,0c0,3.333,0,6.667,0,10
				C-1.25,31.612,1.25,31.612,1.25,30L1.25,30z"/>
		</g>
	</g>
	<g>
		<g>
			<path fill="#9D9D9C" d="M1.25,10c0-3.333,0-6.667,0-10c0-1.612-2.5-1.612-2.5,0c0,3.333,0,6.667,0,10
				C-1.25,11.612,1.25,11.612,1.25,10L1.25,10z"/>
		</g>
	</g>
	<g>
		<g>
			<path fill="#9D9D9C" d="M1.25,50c0-3.333,0-6.667,0-10c0-1.612-2.5-1.612-2.5,0c0,3.333,0,6.667,0,10
				C-1.25,51.611,1.25,51.611,1.25,50L1.25,50z"/>
		</g>
	</g>
	<g>
		<g>
			<path fill="#9D9D9C" d="M1.25,90c0-3.333,0-6.667,0-10c0-1.611-2.5-1.611-2.5,0c0,3.333,0,6.667,0,10
				C-1.25,91.611,1.25,91.611,1.25,90L1.25,90z"/>
		</g>
	</g>
	<g>
		<g>
			<path fill="#9D9D9C" d="M30,98.75c-3.333,0-6.667,0-10,0c-1.612,0-1.612,2.5,0,2.5c3.333,0,6.667,0,10,0
				C31.612,101.25,31.612,98.75,30,98.75L30,98.75z"/>
		</g>
	</g>
	<g>
		<g>
			<path fill="#9D9D9C" d="M90,98.75c-3.333,0-6.667,0-10,0c-1.612,0-1.612,2.5,0,2.5c3.333,0,6.667,0,10,0
				C91.612,101.25,91.612,98.75,90,98.75L90,98.75z"/>
		</g>
	</g>
	<g>
		<g>
			<path fill="#9D9D9C" d="M130,98.75c-3.333,0-6.667,0-10,0c-1.611,0-1.611,2.5,0,2.5c3.333,0,6.667,0,10,0
				C131.611,101.25,131.611,98.75,130,98.75L130,98.75z"/>
		</g>
	</g>
	<g>
		<g>
			<path fill="#9D9D9C" d="M170,98.75c-3.333,0-6.667,0-10,0c-1.611,0-1.611,2.5,0,2.5c3.333,0,6.667,0,10,0
				C171.611,101.25,171.611,98.75,170,98.75L170,98.75z"/>
		</g>
	</g>
	<g>
		<g>
			<path fill="#9D9D9C" d="M201.25,100c0-3.333,0-6.667,0-10c0-1.611-2.5-1.611-2.5,0c0,3.333,0,6.667,0,10
				C198.75,101.611,201.25,101.611,201.25,100L201.25,100z"/>
		</g>
	</g>
	<g>
		<g>
			<path fill="#9D9D9C" d="M201.25,60c0-3.333,0-6.667,0-10c0-1.612-2.5-1.612-2.5,0c0,3.333,0,6.667,0,10
				C198.75,61.611,201.25,61.611,201.25,60L201.25,60z"/>
		</g>
	</g>
	<g>
		<g>
			<path fill="#9D9D9C" d="M201.25,20c0-3.333,0-6.667,0-10c0-1.612-2.5-1.612-2.5,0c0,3.333,0,6.667,0,10
				C198.75,21.612,201.25,21.612,201.25,20L201.25,20z"/>
		</g>
	</g>
	<g>
		<g>
			<path fill="#9D9D9C" d="M180-1.25c-3.333,0-6.667,0-10,0c-1.611,0-1.611,2.5,0,2.5c3.333,0,6.667,0,10,0
				C181.611,1.25,181.611-1.25,180-1.25L180-1.25z"/>
		</g>
	</g>
	<g>
		<g>
			<path fill="#9D9D9C" d="M120-1.25c-3.333,0-6.667,0-10,0c-1.611,0-1.611,2.5,0,2.5c3.333,0,6.667,0,10,0
				C121.611,1.25,121.611-1.25,120-1.25L120-1.25z"/>
		</g>
	</g>
	<g>
		<g>
			<path fill="#9D9D9C" d="M80-1.25c-3.333,0-6.667,0-10,0c-1.612,0-1.612,2.5,0,2.5c3.333,0,6.667,0,10,0
				C81.612,1.25,81.612-1.25,80-1.25L80-1.25z"/>
		</g>
	</g>
	<g>
		<g>
			<path fill="#9D9D9C" d="M40-1.25c-3.333,0-6.667,0-10,0c-1.612,0-1.612,2.5,0,2.5c3.333,0,6.667,0,10,0
				C41.612,1.25,41.612-1.25,40-1.25L40-1.25z"/>
		</g>
	</g>
</g>
<g>
	<path fill-rule="evenodd" clip-rule="evenodd" fill="#706F6F" d="M86.313,70.65c-0.98,2.355-2.094,5.03-3.097,7.442
		c1.007,1.485,1.884,2.779,2.961,4.365c0.222,0,0.845,0,1.469,0c11.774,0,23.547,0,35.32,0.002c0.478,0.001,1.041-0.136,1.409,0.07
		c0.436,0.245,0.914,0.764,0.97,1.215c0.04,0.32-0.527,0.869-0.939,1.049c-0.454,0.197-1.039,0.11-1.568,0.11
		c-11.827,0.004-23.652,0.015-35.479-0.017c-1.075-0.003-1.629,0.249-2.077,1.348c-1.201,2.943-4.452,4.365-7.502,3.492
		c-2.82-0.807-4.828-3.807-4.495-6.715c0.358-3.12,2.976-5.625,6.11-5.599c1.25,0.01,1.747-0.456,2.146-1.521
		c0.78-2.078,1.725-4.096,2.5-6.176c0.147-0.393-0.055-1.034-0.301-1.434c-1.068-1.74-2.505-3.313-3.276-5.167
		c-2.23-5.369-4.206-10.846-6.281-16.28c-0.094-0.247-0.308-0.516-0.264-0.735c0.121-0.604,0.349-1.186,0.535-1.776
		c0.568,0.323,1.444,0.512,1.652,0.992c1.137,2.617,2.115,5.303,3.136,7.97s2.021,5.342,3.044,8.008
		c2.355,6.143,5.535,8.007,12.001,7.1c12.897-1.809,25.798-3.602,38.695-5.403c3.681-0.513,5.313-2.349,5.323-6.048
		c0.016-5.462,0.007-10.924,0.002-16.387c0-0.47-0.045-0.94-0.073-1.516c-21.438,0-42.789,0-64.247,0
		c0,0.166,0.045,0.37-0.008,0.543c-0.19,0.615-0.414,1.219-0.625,1.828c-0.555-0.356-1.401-0.588-1.616-1.089
		c-1.162-2.722-2.164-5.512-3.229-8.275c-0.986-2.558-2.066-3.308-4.763-3.325c-1.008-0.007-2.038,0.121-3.014-0.055
		c-0.537-0.096-0.982-0.695-1.47-1.068c0.454-0.404,0.882-1.117,1.364-1.155c1.631-0.132,3.3-0.17,4.922,0.027
		c2.331,0.284,3.97,1.658,4.868,3.836c0.725,1.76,1.336,3.567,2.103,5.308c0.183,0.416,0.761,0.895,1.187,0.924
		c1.578,0.109,3.168,0.043,4.609,0.043c0-3.312,0.175-6.525-0.069-9.707c-0.134-1.744-1.034-3.418-1.472-5.154
		c-0.213-0.844-0.375-1.805-0.181-2.624c0.316-1.334,1.321-2.132,2.744-2.277c1.473-0.15,2.618,0.413,3.316,1.702
		c0.675,1.248,1.241,2.553,1.887,3.9c1.277-2.047,1.289-4.182,1.031-6.365c-0.099-0.842-0.206-1.688-0.213-2.533
		c-0.017-1.913,1.183-3.288,2.985-3.504c1.701-0.205,3.251,0.986,3.65,2.837c0.2,0.931,0.338,1.874,0.515,2.81
		c0.176,0.934,0.365,1.865,0.595,3.034c1.878,0,3.765,0,5.651,0c1.856,0,3.714,0.057,5.567-0.017
		c1.541-0.061,2.117,0.617,2.02,2.096c-0.062,0.939-0.012,1.886-0.012,3.014c1.934,0,3.79,0.286,5.482-0.117
		c0.892-0.212,1.775-1.522,2.153-2.528c0.367-0.976,0.063-2.198,0.092-3.311c0.051-2.043,0.903-2.9,2.908-2.954
		c0.529-0.014,1.061-0.01,1.591-0.001c2.204,0.035,3.044,0.883,3.064,3.101c0.01,1.007-0.052,2.019,0.025,3.021
		c0.038,0.491,0.183,1.111,0.515,1.417c1.443,1.332,2.321,2.858,2.004,4.74c1.313-0.7,2.617-1.332,3.844-2.089
		c0.341-0.21,0.621-0.788,0.635-1.206c0.051-1.482-0.12-2.976-0.001-4.449c0.042-0.525,0.675-1.001,1.038-1.5
		c0.413,0.452,1.049,0.845,1.19,1.371c0.244,0.895,0.176,1.873,0.548,2.874c0.781-2.166,1.54-4.341,2.353-6.496
		c0.506-1.342,1.598-1.719,2.183-0.758c0.244,0.401,0.193,1.114,0.033,1.607c-0.715,2.198-1.517,4.368-2.03,6.724
		c0.614-0.682,1.145-1.482,1.873-2.004c0.486-0.348,1.43-0.607,1.859-0.363c0.807,0.458,0.501,1.246-0.066,1.881
		c-1.166,1.303-2.311,2.625-3.188,3.624c0.48,1.912,1.216,3.549,1.213,5.186c-0.004,1.622-0.75,3.242-1.212,5.021
		c1.569,0,3.091,0.032,4.609-0.01c1.227-0.034,1.701,0.51,1.695,1.72c-0.025,6.577,0.029,13.153-0.031,19.729
		c-0.033,3.577-2.818,6.681-6.454,7.199c-10.063,1.437-20.136,2.804-30.205,4.203c-3.408,0.474-6.801,1.117-10.224,1.398
		C91.448,71.021,89.033,70.732,86.313,70.65z M80.618,24.418c0,1.279-0.022,2.206,0.005,3.132c0.079,2.636,0.138,5.274,0.313,7.905
		c0.026,0.396,0.628,1.067,0.979,1.078c3,0.086,6.004,0.049,9.232,0.049c-0.373-6.453,0.619-12.782-0.768-19.166
		c-0.837,0.17-1.484,0.302-1.881,0.383c-0.387,1.497-0.603,2.798-1.061,4.007c-1.016,2.687-1.372,5.281,0.445,7.791
		c0.243,0.336,0.415,0.744,0.541,1.143c0.306,0.965,1.588,2.148,0.101,2.884c-1.608,0.795-1.801-0.945-2.271-1.898
		c-1.319-2.674-2.575-5.379-3.874-8.109C81.588,23.977,80.971,24.258,80.618,24.418z M103.71,28.838c0-2.688,0-5.192,0-7.659
		c-3.437,0-6.738,0-9.995,0c0,2.626,0,5.129,0,7.659C97.112,28.838,100.371,28.838,103.71,28.838z M114.267,28.793
		c4.152,0.552,4.804,1.317,4.806,5.725c0.001,0.664,0,1.327,0,1.988c0.98,0,1.702,0,2.635,0c0-2.124-0.017-4.173,0.005-6.223
		c0.025-2.619,0.381-5.292-2.069-7.243c-0.594-0.472-2.832-1.128-3.226-0.5C115.24,24.416,112.885,25.889,114.267,28.793z
		 M133.216,30.731c-0.072-1.653-1.304-3.1-3.13-3.336c-2.015-0.26-3.476,0.644-3.951,2.104c0.645,0.917,1.627,1.692,1.53,2.292
		c-0.289,1.783-1.769,0.478-2.959,0.73c-0.215,1.251-0.438,2.554-0.696,4.064c2.013,0,3.698,0,5.383,0
		c2.636,0,2.747-0.104,2.742-2.682c-0.446-0.744-0.895-1.489-1.342-2.233C131.562,31.373,132.331,31.075,133.216,30.731z
		 M93.639,36.473c3.486,0,6.788,0,10.085,0c0-1.776,0-3.435,0-5.101c-3.424,0-6.726,0-10.085,0
		C93.639,33.11,93.639,34.736,93.639,36.473z M111.405,26.25c-1.699,0-3.308,0-4.991,0c0,3.448,0,6.805,0,10.244
		c1.696,0,3.304,0,4.991,0C111.405,33.044,111.405,29.688,111.405,26.25z M79.597,87.551c2.178-0.01,3.889-1.776,3.846-3.971
		c-0.042-2.142-1.719-3.763-3.882-3.755c-2.17,0.009-3.808,1.63-3.832,3.794C75.705,85.85,77.388,87.561,79.597,87.551z
		 M116.442,36.521c0.071-0.296,0.137-0.446,0.141-0.597c0.014-0.843,0.026-1.687,0.017-2.53c-0.023-1.964-0.526-2.342-2.52-1.914
		c0,1.66,0,3.32,0,5.041C114.904,36.521,115.625,36.521,116.442,36.521z M116.617,17.313c0,0.905,0,1.712,0,2.582
		c0.85,0,1.605,0,2.434,0c0-0.901,0-1.706,0-2.582C118.231,17.313,117.513,17.313,116.617,17.313z M81.505,21.323
		c-0.616-0.804-1.102-1.488-1.664-2.102c-0.06-0.064-0.838,0.3-0.832,0.445c0.038,0.82,0.214,1.633,0.37,2.613
		C80.2,21.91,80.704,21.683,81.505,21.323z M90.099,14.98c-0.404-0.96-0.682-1.71-1.055-2.409c-0.057-0.106-0.802-0.029-0.821,0.056
		c-0.196,0.854-0.306,1.726-0.471,2.785C88.637,15.248,89.148,15.154,90.099,14.98z"/>
	<path fill-rule="evenodd" clip-rule="evenodd" fill="#706F6F" d="M134.42,77.368c3.504-0.002,6.333,2.855,6.307,6.372
		c-0.027,3.41-2.872,6.246-6.285,6.26c-3.453,0.013-6.386-2.947-6.331-6.394C128.165,80.186,131.011,77.37,134.42,77.368z
		 M138.283,83.681c0.003-2.155-1.63-3.822-3.778-3.856c-2.225-0.036-3.962,1.653-3.961,3.85c0.001,2.097,1.708,3.838,3.8,3.877
		C136.554,87.592,138.279,85.896,138.283,83.681z"/>
	<path fill-rule="evenodd" clip-rule="evenodd" fill="#706F6F" d="M83.602,42.709c0.212-0.227,0.633-0.958,0.905-0.907
		c0.546,0.103,1.311,0.54,1.458,1.005c0.872,2.77,1.597,5.586,2.366,8.387c1.161,4.229,2.299,8.463,3.493,12.682
		c0.247,0.873,0.304,1.65-0.654,1.973c-0.996,0.334-1.426-0.379-1.66-1.229c-1.901-6.928-3.805-13.855-5.704-20.784
		C83.737,43.582,83.71,43.315,83.602,42.709z"/>
	<path fill-rule="evenodd" clip-rule="evenodd" fill="#706F6F" d="M100.368,63.895c-0.187,0.199-0.746,1.023-0.928,0.947
		c-0.566-0.237-1.317-0.754-1.416-1.271c-0.801-4.21-1.469-8.444-2.18-12.672c-0.412-2.453-0.844-4.903-1.236-7.359
		c-0.132-0.828-0.093-1.797,0.986-1.753c0.488,0.02,1.271,0.789,1.365,1.316c1.173,6.618,2.245,13.254,3.34,19.886
		C100.326,63.145,100.325,63.305,100.368,63.895z"/>
	<path fill-rule="evenodd" clip-rule="evenodd" fill="#706F6F" d="M108.935,60.634c0,0.423-0.01,0.847,0.002,1.269
		c0.023,0.819,0.078,1.694-1.049,1.775c-1.104,0.08-1.242-0.728-1.295-1.584c-0.168-2.691-0.362-5.382-0.527-8.073
		c-0.206-3.378-0.394-6.758-0.588-10.136c-0.007-0.105-0.017-0.211-0.021-0.316c-0.057-0.907,0.037-1.909,1.175-1.776
		c0.486,0.056,1.188,0.996,1.239,1.583c0.316,3.633,0.48,7.28,0.687,10.923c0.12,2.112,0.228,4.225,0.341,6.337
		C108.91,60.634,108.923,60.634,108.935,60.634z"/>
	<path fill-rule="evenodd" clip-rule="evenodd" fill="#706F6F" d="M114.688,52.062c0-2.805-0.006-5.61,0.003-8.416
		c0.002-0.924,0.006-1.96,1.301-1.914c1.165,0.042,1.17,1,1.17,1.88c-0.003,5.663-0.003,11.325,0,16.988
		c0,0.89-0.035,1.817-1.213,1.835c-1.184,0.019-1.257-0.914-1.259-1.802C114.685,57.775,114.688,54.918,114.688,52.062z"/>
	<path fill-rule="evenodd" clip-rule="evenodd" fill="#706F6F" d="M133.086,50.955c0,2.433-0.013,4.867,0.008,7.3
		c0.007,0.869-0.119,1.708-1.149,1.736c-1.133,0.031-1.301-0.866-1.301-1.783c0.001-4.92-0.003-9.841,0.007-14.76
		c0.001-0.821,0.072-1.702,1.169-1.722c1.181-0.022,1.273,0.856,1.271,1.77C133.079,45.981,133.086,48.468,133.086,50.955z"/>
	<path fill-rule="evenodd" clip-rule="evenodd" fill="#706F6F" d="M125.249,51.63c0,2.651,0.004,5.303-0.002,7.952
		c-0.001,0.877-0.023,1.864-1.216,1.827c-1.158-0.037-1.154-1.002-1.153-1.889c0.008-5.302,0.006-10.604,0.004-15.905
		c0-0.864-0.073-1.852,1.136-1.885c1.355-0.037,1.221,1.061,1.227,1.948C125.261,46.329,125.249,48.979,125.249,51.63z"/>
	<path fill-rule="evenodd" clip-rule="evenodd" fill="#706F6F" d="M98.774,23.825c0.368,0,0.807-0.128,1.089,0.027
		c0.492,0.27,0.887,0.715,1.322,1.087c-0.452,0.404-0.844,1.007-1.37,1.165c-0.675,0.203-1.502,0.2-2.181,0.002
		c-0.533-0.156-0.94-0.743-1.403-1.138c0.48-0.384,0.922-0.836,1.454-1.125c0.284-0.154,0.722-0.027,1.09-0.027
		C98.774,23.819,98.774,23.822,98.774,23.825z"/>
	<path fill-rule="evenodd" clip-rule="evenodd" fill="#706F6F" d="M79.535,85.412c-0.552-0.866-1.153-1.398-1.076-1.799
		c0.084-0.44,0.763-0.981,1.245-1.052c0.301-0.044,1.013,0.706,1.006,1.09C80.701,84.118,80.129,84.575,79.535,85.412z"/>
	<path fill-rule="evenodd" clip-rule="evenodd" fill="#706F6F" d="M134.43,81.876c0.582,0.896,1.173,1.406,1.113,1.822
		c-0.061,0.431-0.718,0.987-1.187,1.069c-0.289,0.05-0.993-0.675-1.007-1.068C133.333,83.242,133.868,82.765,134.43,81.876z"/>
</g>
</svg>
