<?xml version="1.0" encoding="utf-8"?>
<!-- Generator: Adobe Illustrator 16.0.2, SVG Export Plug-In . SVG Version: 6.00 Build 0)  -->
<!DOCTYPE svg PUBLIC "-//W3C//DTD SVG 1.1//EN" "http://www.w3.org/Graphics/SVG/1.1/DTD/svg11.dtd">
<svg version="1.1" id="Layer_1" xmlns="http://www.w3.org/2000/svg" xmlns:xlink="http://www.w3.org/1999/xlink" x="0px" y="0px"
	 width="200px" height="100px" viewBox="0 0 200 100" enable-background="new 0 0 200 100" xml:space="preserve">
<g>
	<g>
		<g>
			<path fill="#9D9D9C" d="M20-1.25c-3.333,0-6.667,0-10,0c-1.612,0-1.612,2.5,0,2.5c3.333,0,6.667,0,10,0
				C21.612,1.25,21.612-1.25,20-1.25L20-1.25z"/>
		</g>
	</g>
	<g>
		<g>
			<path fill="#9D9D9C" d="M60-1.25c-3.333,0-6.667,0-10,0c-1.612,0-1.612,2.5,0,2.5c3.333,0,6.667,0,10,0
				C61.612,1.25,61.612-1.25,60-1.25L60-1.25z"/>
		</g>
	</g>
	<g>
		<g>
			<path fill="#9D9D9C" d="M100-1.25c-3.333,0-6.667,0-10,0c-1.612,0-1.612,2.5,0,2.5c3.333,0,6.667,0,10,0
				C101.611,1.25,101.611-1.25,100-1.25L100-1.25z"/>
		</g>
	</g>
	<g>
		<g>
			<path fill="#9D9D9C" d="M140-1.25c-3.333,0-6.667,0-10,0c-1.611,0-1.611,2.5,0,2.5c3.333,0,6.667,0,10,0
				C141.611,1.25,141.611-1.25,140-1.25L140-1.25z"/>
		</g>
	</g>
	<g>
		<g>
			<path fill="#9D9D9C" d="M160-1.25c-3.333,0-6.667,0-10,0c-1.611,0-1.611,2.5,0,2.5c3.333,0,6.667,0,10,0
				C161.611,1.25,161.611-1.25,160-1.25L160-1.25z"/>
		</g>
	</g>
	<g>
		<g>
			<path fill="#9D9D9C" d="M200-1.25c-3.333,0-6.667,0-10,0c-1.611,0-1.611,2.5,0,2.5c3.333,0,6.667,0,10,0
				C201.611,1.25,201.611-1.25,200-1.25L200-1.25z"/>
		</g>
	</g>
	<g>
		<g>
			<path fill="#9D9D9C" d="M201.25,40c0-3.333,0-6.667,0-10c0-1.612-2.5-1.612-2.5,0c0,3.333,0,6.667,0,10
				C198.75,41.612,201.25,41.612,201.25,40L201.25,40z"/>
		</g>
	</g>
	<g>
		<g>
			<path fill="#9D9D9C" d="M201.25,80c0-3.333,0-6.667,0-10c0-1.611-2.5-1.611-2.5,0c0,3.333,0,6.667,0,10
				C198.75,81.611,201.25,81.611,201.25,80L201.25,80z"/>
		</g>
	</g>
	<g>
		<g>
			<path fill="#9D9D9C" d="M190,98.75c-3.333,0-6.667,0-10,0c-1.611,0-1.611,2.5,0,2.5c3.333,0,6.667,0,10,0
				C191.611,101.25,191.611,98.75,190,98.75L190,98.75z"/>
		</g>
	</g>
	<g>
		<g>
			<path fill="#9D9D9C" d="M150,98.75c-3.333,0-6.667,0-10,0c-1.611,0-1.611,2.5,0,2.5c3.333,0,6.667,0,10,0
				C151.611,101.25,151.611,98.75,150,98.75L150,98.75z"/>
		</g>
	</g>
	<g>
		<g>
			<path fill="#9D9D9C" d="M110,98.75c-3.333,0-6.667,0-10,0c-1.612,0-1.612,2.5,0,2.5c3.333,0,6.667,0,10,0
				C111.611,101.25,111.611,98.75,110,98.75L110,98.75z"/>
		</g>
	</g>
	<g>
		<g>
			<path fill="#9D9D9C" d="M70,98.75c-3.333,0-6.667,0-10,0c-1.612,0-1.612,2.5,0,2.5c3.333,0,6.667,0,10,0
				C71.612,101.25,71.612,98.75,70,98.75L70,98.75z"/>
		</g>
	</g>
	<g>
		<g>
			<path fill="#9D9D9C" d="M50,98.75c-3.333,0-6.667,0-10,0c-1.612,0-1.612,2.5,0,2.5c3.333,0,6.667,0,10,0
				C51.612,101.25,51.612,98.75,50,98.75L50,98.75z"/>
		</g>
	</g>
	<g>
		<g>
			<path fill="#9D9D9C" d="M10,98.75c-3.333,0-6.667,0-10,0c-1.612,0-1.612,2.5,0,2.5c3.333,0,6.667,0,10,0
				C11.612,101.25,11.612,98.75,10,98.75L10,98.75z"/>
		</g>
	</g>
	<g>
		<g>
			<path fill="#9D9D9C" d="M1.25,70c0-3.333,0-6.667,0-10c0-1.611-2.5-1.611-2.5,0c0,3.333,0,6.667,0,10
				C-1.25,71.611,1.25,71.611,1.25,70L1.25,70z"/>
		</g>
	</g>
	<g>
		<g>
			<path fill="#9D9D9C" d="M1.25,30c0-3.333,0-6.667,0-10c0-1.612-2.5-1.612-2.5,0c0,3.333,0,6.667,0,10
				C-1.25,31.612,1.25,31.612,1.25,30L1.25,30z"/>
		</g>
	</g>
	<g>
		<g>
			<path fill="#9D9D9C" d="M1.25,10c0-3.333,0-6.667,0-10c0-1.612-2.5-1.612-2.5,0c0,3.333,0,6.667,0,10
				C-1.25,11.612,1.25,11.612,1.25,10L1.25,10z"/>
		</g>
	</g>
	<g>
		<g>
			<path fill="#9D9D9C" d="M1.25,50c0-3.333,0-6.667,0-10c0-1.612-2.5-1.612-2.5,0c0,3.333,0,6.667,0,10
				C-1.25,51.611,1.25,51.611,1.25,50L1.25,50z"/>
		</g>
	</g>
	<g>
		<g>
			<path fill="#9D9D9C" d="M1.25,90c0-3.333,0-6.667,0-10c0-1.611-2.5-1.611-2.5,0c0,3.333,0,6.667,0,10
				C-1.25,91.611,1.25,91.611,1.25,90L1.25,90z"/>
		</g>
	</g>
	<g>
		<g>
			<path fill="#9D9D9C" d="M30,98.75c-3.333,0-6.667,0-10,0c-1.612,0-1.612,2.5,0,2.5c3.333,0,6.667,0,10,0
				C31.612,101.25,31.612,98.75,30,98.75L30,98.75z"/>
		</g>
	</g>
	<g>
		<g>
			<path fill="#9D9D9C" d="M90,98.75c-3.333,0-6.667,0-10,0c-1.612,0-1.612,2.5,0,2.5c3.333,0,6.667,0,10,0
				C91.612,101.25,91.612,98.75,90,98.75L90,98.75z"/>
		</g>
	</g>
	<g>
		<g>
			<path fill="#9D9D9C" d="M130,98.75c-3.333,0-6.667,0-10,0c-1.611,0-1.611,2.5,0,2.5c3.333,0,6.667,0,10,0
				C131.611,101.25,131.611,98.75,130,98.75L130,98.75z"/>
		</g>
	</g>
	<g>
		<g>
			<path fill="#9D9D9C" d="M170,98.75c-3.333,0-6.667,0-10,0c-1.611,0-1.611,2.5,0,2.5c3.333,0,6.667,0,10,0
				C171.611,101.25,171.611,98.75,170,98.75L170,98.75z"/>
		</g>
	</g>
	<g>
		<g>
			<path fill="#9D9D9C" d="M201.25,100c0-3.333,0-6.667,0-10c0-1.611-2.5-1.611-2.5,0c0,3.333,0,6.667,0,10
				C198.75,101.611,201.25,101.611,201.25,100L201.25,100z"/>
		</g>
	</g>
	<g>
		<g>
			<path fill="#9D9D9C" d="M201.25,60c0-3.333,0-6.667,0-10c0-1.612-2.5-1.612-2.5,0c0,3.333,0,6.667,0,10
				C198.75,61.611,201.25,61.611,201.25,60L201.25,60z"/>
		</g>
	</g>
	<g>
		<g>
			<path fill="#9D9D9C" d="M201.25,20c0-3.333,0-6.667,0-10c0-1.612-2.5-1.612-2.5,0c0,3.333,0,6.667,0,10
				C198.75,21.612,201.25,21.612,201.25,20L201.25,20z"/>
		</g>
	</g>
	<g>
		<g>
			<path fill="#9D9D9C" d="M180-1.25c-3.333,0-6.667,0-10,0c-1.611,0-1.611,2.5,0,2.5c3.333,0,6.667,0,10,0
				C181.611,1.25,181.611-1.25,180-1.25L180-1.25z"/>
		</g>
	</g>
	<g>
		<g>
			<path fill="#9D9D9C" d="M120-1.25c-3.333,0-6.667,0-10,0c-1.611,0-1.611,2.5,0,2.5c3.333,0,6.667,0,10,0
				C121.611,1.25,121.611-1.25,120-1.25L120-1.25z"/>
		</g>
	</g>
	<g>
		<g>
			<path fill="#9D9D9C" d="M80-1.25c-3.333,0-6.667,0-10,0c-1.612,0-1.612,2.5,0,2.5c3.333,0,6.667,0,10,0
				C81.612,1.25,81.612-1.25,80-1.25L80-1.25z"/>
		</g>
	</g>
	<g>
		<g>
			<path fill="#9D9D9C" d="M40-1.25c-3.333,0-6.667,0-10,0c-1.612,0-1.612,2.5,0,2.5c3.333,0,6.667,0,10,0
				C41.612,1.25,41.612-1.25,40-1.25L40-1.25z"/>
		</g>
	</g>
</g>
<g>
	<path fill="#706F6F" d="M70.142,59.469c-1.951-6.306-1.974-12.656,0.023-19.107c-4.2-1.832-7.327-4.723-9.027-9.002
		c-1.229-3.094-1.4-6.269-0.628-9.495c1.44-6.013,6.762-11.049,12.64-11.706c7.572-0.846,13.64,2.044,17.336,9.885
		c6.326-1.966,12.723-1.982,19.067-0.011c4.752-9.562,11.766-10.689,17.742-9.774c6.448,0.987,11.664,6.358,12.52,12.721
		c0.906,6.751-1.313,13.337-9.76,17.387c1.801,10.39,1.799,11.784-0.072,19.151c0.318,0.179,0.654,0.39,1.012,0.563
		c6.386,3.098,9.705,9.266,8.9,16.555c-0.674,6.122-5.756,11.526-12.295,12.983c-3.072,0.687-6.104,0.411-9.035-0.754
		c-0.77-0.306-1.729-0.644-1.313-1.737c0.443-1.163,1.366-0.771,2.238-0.449c9.048,3.338,18.394-3.171,18.216-12.676
		c-0.134-7.133-5.985-12.92-13.142-12.99c-7.319-0.074-13.222,5.526-13.479,12.756c-0.124,3.492,0.979,6.525,3.153,9.23
		c0.347,0.43,0.652,1.135,0.556,1.628c-0.188,0.95-1.339,1.063-2.067,0.119c-1.164-1.506-2.172-3.136-3.332-4.839
		c-6.147,1.89-12.498,1.916-18.93-0.084c-1.756,4.132-4.587,7.191-8.701,8.949c-2.904,1.24-5.953,1.531-9.029,0.918
		c-6.432-1.284-11.376-6.354-12.48-12.649C58.993,69.831,62.127,64.23,70.142,59.469z M91.206,77.55
		c5.903,1.841,11.785,1.845,17.76-0.02c-0.94-5.55,0.4-10.365,4.294-14.288c3.942-3.969,8.817-5.285,14.381-4.377
		c1.848-6,1.879-11.882-0.015-17.837c-5.586,0.94-10.401-0.413-14.319-4.312c-3.964-3.942-5.281-8.818-4.373-14.267
		c-4.74-2.057-14.175-1.873-17.816,0.136c0.653,2.838,0.318,5.65-0.637,8.401c-0.269,0.773-0.767,1.586-1.677,1.033
		c-0.399-0.242-0.576-1.182-0.523-1.775c0.152-1.695,0.702-3.378,0.688-5.061c-0.059-7.099-6.051-12.878-13.199-12.887
		c-7.129-0.009-13.217,5.766-13.342,12.81c-0.099,5.611,2.368,9.922,7.396,12.405c5.075,2.506,9.998,1.832,14.467-1.69
		c0.728-0.575,1.488-1.283,2.26-0.334c0.759,0.932,0.023,1.715-0.774,2.157c-1.981,1.1-3.924,2.44-6.063,3.037
		c-2.287,0.638-4.781,0.536-7.396,0.776c-1.694,5.616-1.736,11.499,0.161,17.4C82.785,56.79,93.211,65.457,91.206,77.55z
		 M124.395,38.905c7.354-0.007,13.307-5.936,13.313-13.266c0.011-7.279-6.007-13.323-13.284-13.342
		c-7.418-0.02-13.376,5.961-13.339,13.39C111.122,33.087,116.986,38.913,124.395,38.905z M89.011,74.219
		c-0.027-7.388-5.906-13.222-13.313-13.211C68.332,61.02,62.4,66.939,62.4,74.281c0,7.359,6.062,13.377,13.438,13.337
		C83.164,87.578,89.039,81.602,89.011,74.219z"/>
	<path fill="#706F6F" d="M116.096,74.257c-0.003-1.666-0.039-3.334,0.008-5c0.057-2.02,1.217-3.209,3.224-3.233
		c3.385-0.043,6.771-0.041,10.155,0.002c1.785,0.022,3.139,1.221,3.186,2.986c0.098,3.487,0.091,6.98,0.012,10.469
		c-0.041,1.826-1.41,3.092-3.263,3.119c-3.384,0.051-6.771,0.059-10.155-0.004c-1.873-0.033-3.094-1.306-3.15-3.183
		C116.055,77.695,116.098,75.977,116.096,74.257z M124.443,80.197c1.506,0,3.014-0.021,4.519,0.007
		c0.899,0.017,1.331-0.312,1.321-1.271c-0.029-3.117-0.026-6.232-0.004-9.35c0.009-0.955-0.457-1.286-1.338-1.281
		c-3.063,0.01-6.127,0.008-9.192,0.002c-0.993-0.002-1.373,0.508-1.366,1.465c0.02,3.013,0.023,6.023-0.002,9.037
		c-0.008,0.982,0.389,1.422,1.391,1.397C121.327,80.171,122.887,80.197,124.443,80.197z"/>
	<path fill="#706F6F" d="M101.111,53.143c-1.404,0.16-2.586,0.404-3.762,0.381c-0.512-0.01-1.013-0.572-1.519-0.885
		c0.391-0.451,0.721-1.211,1.182-1.301c1.625-0.314,3.292-0.437,4.951-0.558c0.939-0.068,1.447,0.458,1.445,1.426
		c-0.002,0.931,0,1.86,0,3.228c2.924-2.664,5.583-5.086,8.367-7.624c-2.719-2.589-5.371-5.113-8.362-7.963
		c0,1.03-0.065,1.678,0.014,2.309c0.188,1.517-0.5,2.103-1.959,2.348c-5.739,0.965-9.704,4.241-12.027,9.545
		c-0.059,0.137-0.072,0.289-0.157,0.646c0.844-0.533,1.502-1.109,2.268-1.373c0.463-0.159,1.093,0.166,1.648,0.275
		c-0.134,0.547-0.09,1.28-0.434,1.609c-1.198,1.145-2.468,2.239-3.844,3.152c-0.525,0.35-1.597,0.438-2.08,0.125
		c-0.48-0.313-0.876-1.375-0.721-1.947c1.872-6.945,5.849-12.026,13.073-13.92c1.557-0.408,2.21-1.015,1.937-2.607
		c-0.104-0.607-0.136-1.279,0.021-1.863c0.156-0.588,0.475-1.387,0.932-1.57c0.463-0.187,1.335,0.094,1.764,0.471
		c1.84,1.613,3.582,3.337,5.358,5.021c1.321,1.254,2.662,2.492,3.961,3.771c1.319,1.298,1.327,2.672-0.021,3.923
		c-3.058,2.833-6.123,5.654-9.252,8.405c-0.453,0.396-1.429,0.686-1.891,0.461c-0.471-0.229-0.773-1.127-0.854-1.77
		C101.018,55.736,101.111,54.587,101.111,53.143z"/>
	<path fill="#706F6F" d="M73.79,22.715c1.547-3.993,3.312-4.767,6.904-3.619c0.443,0.142,1.033-0.232,1.562-0.283
		c0.517-0.05,1.224-0.191,1.518,0.073c0.301,0.271,0.447,1.133,0.237,1.482c-1.101,1.832-1.125,3.932-1.682,5.895
		c-1.973,6.958-9.448,9.037-15.194,5.946c-0.414-0.222-0.925-0.978-0.817-1.285c0.16-0.457,0.784-0.866,1.299-1.05
		c0.552-0.197,1.205-0.112,2.069-0.165c-0.329-0.464-0.491-0.746-0.703-0.984c-2.204-2.481-2.373-5.32-1.396-8.313
		c0.473-1.454,1.257-1.501,2.409-0.49C71.119,20.908,72.405,21.709,73.79,22.715z M72.561,31.206
		c4.801-0.289,7.837-3.441,7.909-8.044c0.021-1.274-0.822-2.314-1.98-2.275c-1.265,0.042-2.069,0.732-2.027,2.059
		c0.05,1.585-0.813,2.113-2.154,1.803c-1.626-0.376-3.2-0.978-4.778-1.477c-0.317,1.945,0.536,3.662,2.521,4.855
		C73.943,29.264,73.995,29.511,72.561,31.206z"/>
	<path fill="#706F6F" d="M124.627,24.021c1.047,0.433,2.78-0.434,2.766,1.37c-0.016,1.742-1.727,0.963-2.826,1.379
		c0,1.981-0.006,3.997,0.002,6.011c0.007,0.942-0.088,1.933-1.28,1.899c-1.074-0.031-1.171-0.97-1.164-1.859
		c0.017-2.018,0.004-4.036,0.004-6.036c-1.067-0.416-2.813,0.239-2.678-1.461c0.048-0.588,1.501-1.065,2.313-1.593
		c0.121,0.105,0.245,0.21,0.367,0.316c0-1.028-0.063-2.061,0.014-3.083c0.262-3.494,2.894-4.889,6.19-4.303
		c0.358,0.064,0.918,0.768,0.854,1.055c-0.099,0.435-0.599,0.935-1.041,1.104c-1.02,0.387-2.572,0.265-3.049,0.949
		c-0.615,0.881-0.396,2.348-0.523,3.563C124.553,23.536,124.604,23.743,124.627,24.021z"/>
	<path fill="#706F6F" d="M71.457,74.046c0-1.353-0.018-2.708,0.004-4.062c0.032-1.881,1.142-2.574,2.753-1.674
		c2.449,1.369,4.881,2.772,7.288,4.217c1.612,0.965,1.606,2.25-0.015,3.219c-2.409,1.439-4.842,2.842-7.294,4.206
		c-1.613,0.897-2.701,0.203-2.732-1.688C71.439,76.857,71.457,75.452,71.457,74.046z M73.961,70.895c0,2.311,0,4.287,0,6.476
		c1.912-1.111,3.633-2.112,5.577-3.242C77.589,72.996,75.874,72.002,73.961,70.895z"/>
	<path fill="#706F6F" d="M120.84,74.227c0.026-1.986,1.637-3.533,3.623-3.481c1.879,0.048,3.459,1.651,3.471,3.524
		c0.015,1.92-1.672,3.607-3.586,3.595C122.404,77.852,120.813,76.2,120.84,74.227z M126.145,74.369
		c-0.871-0.6-1.309-1.131-1.75-1.135c-0.383-0.002-1.108,0.641-1.074,0.921c0.058,0.457,0.56,1.116,0.972,1.198
		C124.689,75.434,125.215,74.896,126.145,74.369z"/>
</g>
</svg>
