<?xml version="1.0" encoding="utf-8"?>
<!-- Generator: Adobe Illustrator 16.0.2, SVG Export Plug-In . SVG Version: 6.00 Build 0)  -->
<!DOCTYPE svg PUBLIC "-//W3C//DTD SVG 1.1//EN" "http://www.w3.org/Graphics/SVG/1.1/DTD/svg11.dtd">
<svg version="1.1" id="Layer_1" xmlns="http://www.w3.org/2000/svg" xmlns:xlink="http://www.w3.org/1999/xlink" x="0px" y="0px"
	 width="100px" height="100px" viewBox="0 0 100 100" enable-background="new 0 0 100 100" xml:space="preserve">
<path fill="#706F6F" d="M83.259,49.896c-0.057,1.008,0.808,1.936,1.823,1.961c0.967,0.023,1.831-0.792,1.872-1.785
	c0.04-1.032-0.777-1.936-1.809-1.951C84.187,48.095,83.306,48.927,83.259,49.896z M83.259,49.896
	c-0.057,1.008,0.808,1.936,1.823,1.961c0.967,0.023,1.831-0.792,1.872-1.785c0.04-1.032-0.777-1.936-1.809-1.951
	C84.187,48.095,83.306,48.927,83.259,49.896z M10,26.502v47.025c0,3.536,1.744,5.272,5.312,5.272
	c23.144,0.008,46.273,0.008,69.418,0c3.536,0,5.264-1.736,5.264-5.304c0.008-15.681,0.008-31.354,0-47.034
	c0-3.536-1.735-5.264-5.305-5.264c-11.513-0.008-23.031,0-34.544,0c-11.625,0-23.249-0.008-34.865,0
	C11.736,21.199,10,22.951,10,26.502z M13.456,55.815V44.359c0-0.064,0-0.128,0.008-0.2c0.016-0.336,0.24-0.56,0.544-0.56
	c0.296,0,0.504,0.224,0.528,0.552c0.008,0.072,0.008,0.151,0.008,0.223v11.425c-0.016,0.368-0.224,0.601-0.536,0.601
	C13.688,56.399,13.472,56.167,13.456,55.815z M87.874,50.127c-0.064,1.496-1.344,2.711-2.808,2.671
	c-1.521-0.039-2.817-1.416-2.744-2.936c0.088-1.464,1.408-2.696,2.839-2.664C86.705,47.231,87.946,48.574,87.874,50.127z
	 M80.338,25.774v48.417h-63.25V25.774H80.338z M83.259,49.896c-0.057,1.008,0.808,1.936,1.823,1.961
	c0.967,0.023,1.831-0.792,1.872-1.785c0.04-1.032-0.777-1.936-1.809-1.951C84.187,48.095,83.306,48.927,83.259,49.896z
	 M83.259,49.896c-0.057,1.008,0.808,1.936,1.823,1.961c0.967,0.023,1.831-0.792,1.872-1.785c0.04-1.032-0.777-1.936-1.809-1.951
	C84.187,48.095,83.306,48.927,83.259,49.896z M83.259,49.896c-0.057,1.008,0.808,1.936,1.823,1.961
	c0.967,0.023,1.831-0.792,1.872-1.785c0.04-1.032-0.777-1.936-1.809-1.951C84.187,48.095,83.306,48.927,83.259,49.896z"/>
</svg>
