<?xml version="1.0" encoding="utf-8"?>
<!-- Generator: Adobe Illustrator 16.0.2, SVG Export Plug-In . SVG Version: 6.00 Build 0)  -->
<!DOCTYPE svg PUBLIC "-//W3C//DTD SVG 1.1//EN" "http://www.w3.org/Graphics/SVG/1.1/DTD/svg11.dtd">
<svg version="1.1" id="Layer_1" xmlns="http://www.w3.org/2000/svg" xmlns:xlink="http://www.w3.org/1999/xlink" x="0px" y="0px"
	 width="200px" height="100px" viewBox="0 0 200 100" enable-background="new 0 0 200 100" xml:space="preserve">
<g>
	<g>
		<g>
			<path fill="#9D9D9C" d="M20-1.25c-3.333,0-6.667,0-10,0c-1.612,0-1.612,2.5,0,2.5c3.333,0,6.667,0,10,0
				C21.612,1.25,21.612-1.25,20-1.25L20-1.25z"/>
		</g>
	</g>
	<g>
		<g>
			<path fill="#9D9D9C" d="M60-1.25c-3.333,0-6.667,0-10,0c-1.612,0-1.612,2.5,0,2.5c3.333,0,6.667,0,10,0
				C61.612,1.25,61.612-1.25,60-1.25L60-1.25z"/>
		</g>
	</g>
	<g>
		<g>
			<path fill="#9D9D9C" d="M100-1.25c-3.333,0-6.667,0-10,0c-1.612,0-1.612,2.5,0,2.5c3.333,0,6.667,0,10,0
				C101.611,1.25,101.611-1.25,100-1.25L100-1.25z"/>
		</g>
	</g>
	<g>
		<g>
			<path fill="#9D9D9C" d="M140-1.25c-3.333,0-6.667,0-10,0c-1.611,0-1.611,2.5,0,2.5c3.333,0,6.667,0,10,0
				C141.611,1.25,141.611-1.25,140-1.25L140-1.25z"/>
		</g>
	</g>
	<g>
		<g>
			<path fill="#9D9D9C" d="M160-1.25c-3.333,0-6.667,0-10,0c-1.611,0-1.611,2.5,0,2.5c3.333,0,6.667,0,10,0
				C161.611,1.25,161.611-1.25,160-1.25L160-1.25z"/>
		</g>
	</g>
	<g>
		<g>
			<path fill="#9D9D9C" d="M200-1.25c-3.333,0-6.667,0-10,0c-1.611,0-1.611,2.5,0,2.5c3.333,0,6.667,0,10,0
				C201.611,1.25,201.611-1.25,200-1.25L200-1.25z"/>
		</g>
	</g>
	<g>
		<g>
			<path fill="#9D9D9C" d="M201.25,40c0-3.333,0-6.667,0-10c0-1.612-2.5-1.612-2.5,0c0,3.333,0,6.667,0,10
				C198.75,41.612,201.25,41.612,201.25,40L201.25,40z"/>
		</g>
	</g>
	<g>
		<g>
			<path fill="#9D9D9C" d="M201.25,80c0-3.333,0-6.667,0-10c0-1.611-2.5-1.611-2.5,0c0,3.333,0,6.667,0,10
				C198.75,81.611,201.25,81.611,201.25,80L201.25,80z"/>
		</g>
	</g>
	<g>
		<g>
			<path fill="#9D9D9C" d="M190,98.75c-3.333,0-6.667,0-10,0c-1.611,0-1.611,2.5,0,2.5c3.333,0,6.667,0,10,0
				C191.611,101.25,191.611,98.75,190,98.75L190,98.75z"/>
		</g>
	</g>
	<g>
		<g>
			<path fill="#9D9D9C" d="M150,98.75c-3.333,0-6.667,0-10,0c-1.611,0-1.611,2.5,0,2.5c3.333,0,6.667,0,10,0
				C151.611,101.25,151.611,98.75,150,98.75L150,98.75z"/>
		</g>
	</g>
	<g>
		<g>
			<path fill="#9D9D9C" d="M110,98.75c-3.333,0-6.667,0-10,0c-1.612,0-1.612,2.5,0,2.5c3.333,0,6.667,0,10,0
				C111.611,101.25,111.611,98.75,110,98.75L110,98.75z"/>
		</g>
	</g>
	<g>
		<g>
			<path fill="#9D9D9C" d="M70,98.75c-3.333,0-6.667,0-10,0c-1.612,0-1.612,2.5,0,2.5c3.333,0,6.667,0,10,0
				C71.612,101.25,71.612,98.75,70,98.75L70,98.75z"/>
		</g>
	</g>
	<g>
		<g>
			<path fill="#9D9D9C" d="M50,98.75c-3.333,0-6.667,0-10,0c-1.612,0-1.612,2.5,0,2.5c3.333,0,6.667,0,10,0
				C51.612,101.25,51.612,98.75,50,98.75L50,98.75z"/>
		</g>
	</g>
	<g>
		<g>
			<path fill="#9D9D9C" d="M10,98.75c-3.333,0-6.667,0-10,0c-1.612,0-1.612,2.5,0,2.5c3.333,0,6.667,0,10,0
				C11.612,101.25,11.612,98.75,10,98.75L10,98.75z"/>
		</g>
	</g>
	<g>
		<g>
			<path fill="#9D9D9C" d="M1.25,70c0-3.333,0-6.667,0-10c0-1.611-2.5-1.611-2.5,0c0,3.333,0,6.667,0,10
				C-1.25,71.611,1.25,71.611,1.25,70L1.25,70z"/>
		</g>
	</g>
	<g>
		<g>
			<path fill="#9D9D9C" d="M1.25,30c0-3.333,0-6.667,0-10c0-1.612-2.5-1.612-2.5,0c0,3.333,0,6.667,0,10
				C-1.25,31.612,1.25,31.612,1.25,30L1.25,30z"/>
		</g>
	</g>
	<g>
		<g>
			<path fill="#9D9D9C" d="M1.25,10c0-3.333,0-6.667,0-10c0-1.612-2.5-1.612-2.5,0c0,3.333,0,6.667,0,10
				C-1.25,11.612,1.25,11.612,1.25,10L1.25,10z"/>
		</g>
	</g>
	<g>
		<g>
			<path fill="#9D9D9C" d="M1.25,50c0-3.333,0-6.667,0-10c0-1.612-2.5-1.612-2.5,0c0,3.333,0,6.667,0,10
				C-1.25,51.611,1.25,51.611,1.25,50L1.25,50z"/>
		</g>
	</g>
	<g>
		<g>
			<path fill="#9D9D9C" d="M1.25,90c0-3.333,0-6.667,0-10c0-1.611-2.5-1.611-2.5,0c0,3.333,0,6.667,0,10
				C-1.25,91.611,1.25,91.611,1.25,90L1.25,90z"/>
		</g>
	</g>
	<g>
		<g>
			<path fill="#9D9D9C" d="M30,98.75c-3.333,0-6.667,0-10,0c-1.612,0-1.612,2.5,0,2.5c3.333,0,6.667,0,10,0
				C31.612,101.25,31.612,98.75,30,98.75L30,98.75z"/>
		</g>
	</g>
	<g>
		<g>
			<path fill="#9D9D9C" d="M90,98.75c-3.333,0-6.667,0-10,0c-1.612,0-1.612,2.5,0,2.5c3.333,0,6.667,0,10,0
				C91.612,101.25,91.612,98.75,90,98.75L90,98.75z"/>
		</g>
	</g>
	<g>
		<g>
			<path fill="#9D9D9C" d="M130,98.75c-3.333,0-6.667,0-10,0c-1.611,0-1.611,2.5,0,2.5c3.333,0,6.667,0,10,0
				C131.611,101.25,131.611,98.75,130,98.75L130,98.75z"/>
		</g>
	</g>
	<g>
		<g>
			<path fill="#9D9D9C" d="M170,98.75c-3.333,0-6.667,0-10,0c-1.611,0-1.611,2.5,0,2.5c3.333,0,6.667,0,10,0
				C171.611,101.25,171.611,98.75,170,98.75L170,98.75z"/>
		</g>
	</g>
	<g>
		<g>
			<path fill="#9D9D9C" d="M201.25,100c0-3.333,0-6.667,0-10c0-1.611-2.5-1.611-2.5,0c0,3.333,0,6.667,0,10
				C198.75,101.611,201.25,101.611,201.25,100L201.25,100z"/>
		</g>
	</g>
	<g>
		<g>
			<path fill="#9D9D9C" d="M201.25,60c0-3.333,0-6.667,0-10c0-1.612-2.5-1.612-2.5,0c0,3.333,0,6.667,0,10
				C198.75,61.611,201.25,61.611,201.25,60L201.25,60z"/>
		</g>
	</g>
	<g>
		<g>
			<path fill="#9D9D9C" d="M201.25,20c0-3.333,0-6.667,0-10c0-1.612-2.5-1.612-2.5,0c0,3.333,0,6.667,0,10
				C198.75,21.612,201.25,21.612,201.25,20L201.25,20z"/>
		</g>
	</g>
	<g>
		<g>
			<path fill="#9D9D9C" d="M180-1.25c-3.333,0-6.667,0-10,0c-1.611,0-1.611,2.5,0,2.5c3.333,0,6.667,0,10,0
				C181.611,1.25,181.611-1.25,180-1.25L180-1.25z"/>
		</g>
	</g>
	<g>
		<g>
			<path fill="#9D9D9C" d="M120-1.25c-3.333,0-6.667,0-10,0c-1.611,0-1.611,2.5,0,2.5c3.333,0,6.667,0,10,0
				C121.611,1.25,121.611-1.25,120-1.25L120-1.25z"/>
		</g>
	</g>
	<g>
		<g>
			<path fill="#9D9D9C" d="M80-1.25c-3.333,0-6.667,0-10,0c-1.612,0-1.612,2.5,0,2.5c3.333,0,6.667,0,10,0
				C81.612,1.25,81.612-1.25,80-1.25L80-1.25z"/>
		</g>
	</g>
	<g>
		<g>
			<path fill="#9D9D9C" d="M40-1.25c-3.333,0-6.667,0-10,0c-1.612,0-1.612,2.5,0,2.5c3.333,0,6.667,0,10,0
				C41.612,1.25,41.612-1.25,40-1.25L40-1.25z"/>
		</g>
	</g>
</g>
<g>
	<g>
		<g>
			<path fill="#706F6F" d="M41.271,58.584c-4.167,0-8.333,0-12.5,0c-1.611,0-1.611,2.5,0,2.5c4.167,0,8.333,0,12.5,0
				C42.883,61.084,42.883,58.584,41.271,58.584L41.271,58.584z"/>
		</g>
	</g>
	<g>
		<g>
			<path fill="#706F6F" d="M11.271,16.689c0-2.07,0-4.141,0-6.211c0-1.612-2.5-1.612-2.5,0c0,2.07,0,4.141,0,6.211
				C8.771,18.301,11.271,18.301,11.271,16.689L11.271,16.689z"/>
		</g>
	</g>
	<g>
		<g>
			<path fill="#706F6F" d="M61.271,16.689c0-2.07,0-4.141,0-6.211c0-1.612-2.5-1.612-2.5,0c0,2.07,0,4.141,0,6.211
				C58.771,18.301,61.271,18.301,61.271,16.689L61.271,16.689z"/>
		</g>
	</g>
	<g>
		<g>
			<path fill="#706F6F" d="M10.021,81.25c49.992,0,99.984,0,149.979,0c10.006,0,20.016,0,30.021,0c1.611,0,1.611-2.5,0-2.5
				c-49.992,0-99.984,0-149.977,0c-10.008,0-20.016,0-30.023,0C8.409,78.75,8.409,81.25,10.021,81.25L10.021,81.25z"/>
		</g>
	</g>
	<g>
		<g>
			<path fill="#706F6F" d="M10.021,91.25c49.992,0,99.984,0,149.979,0c10.006,0,20.016,0,30.021,0c1.611,0,1.611-2.5,0-2.5
				c-49.992,0-99.984,0-149.977,0c-10.008,0-20.016,0-30.023,0C8.409,88.75,8.409,91.25,10.021,91.25L10.021,91.25z"/>
		</g>
	</g>
	<g>
		<g>
			<path fill="#706F6F" d="M10.021,71.25c49.992,0,99.984,0,149.979,0c10.006,0,20.016,0,30.021,0c1.611,0,1.611-2.5,0-2.5
				c-49.992,0-99.984,0-149.977,0c-10.008,0-20.016,0-30.023,0C8.409,68.75,8.409,71.25,10.021,71.25L10.021,71.25z"/>
		</g>
	</g>
	<g>
		<g>
			<path fill="#706F6F" d="M75.021,61.25c38.333,0,76.667,0,115,0c1.611,0,1.611-2.5,0-2.5c-38.333,0-76.667,0-115,0
				C73.409,58.75,73.409,61.25,75.021,61.25L75.021,61.25z"/>
		</g>
	</g>
	<g>
		<g>
			<path fill="#706F6F" d="M75.021,51.25c38.027,0,76.057,0,114.084,0c1.611,0,1.611-2.5,0-2.5c-38.027,0-76.057,0-114.084,0
				C73.409,48.75,73.409,51.25,75.021,51.25L75.021,51.25z"/>
		</g>
	</g>
	<g>
		<g>
			<path fill="#706F6F" d="M75.021,41.25c35,0,70,0,105,0c1.611,0,1.611-2.5,0-2.5c-35,0-70,0-105,0
				C73.409,38.75,73.409,41.25,75.021,41.25L75.021,41.25z"/>
		</g>
	</g>
	<g>
		<g>
			<path fill="#706F6F" d="M75.021,31.25c36.667,0,73.333,0,110,0c1.611,0,1.611-2.5,0-2.5c-36.667,0-73.333,0-110,0
				C73.409,28.75,73.409,31.25,75.021,31.25L75.021,31.25z"/>
		</g>
	</g>
	<g>
		<g>
			<path fill="#706F6F" d="M75.021,21.25c38.333,0,76.667,0,115,0c1.611,0,1.611-2.5,0-2.5c-38.333,0-76.667,0-115,0
				C73.409,18.75,73.409,21.25,75.021,21.25L75.021,21.25z"/>
		</g>
	</g>
	<g>
		<g>
			<path fill="#706F6F" d="M75.021,11.25c35,0,70,0,105,0c1.611,0,1.611-2.5,0-2.5c-35,0-70,0-105,0
				C73.409,8.75,73.409,11.25,75.021,11.25L75.021,11.25z"/>
		</g>
	</g>
</g>
<g>
	<rect x="10.021" y="9.333" fill="#706F6F" width="50" height="5"/>
	<rect x="31.021" y="11.833" fill="#706F6F" width="8" height="48.001"/>
</g>
</svg>
