<?xml version="1.0" encoding="utf-8"?>
<!-- Generator: Adobe Illustrator 16.0.2, SVG Export Plug-In . SVG Version: 6.00 Build 0)  -->
<!DOCTYPE svg PUBLIC "-//W3C//DTD SVG 1.1//EN" "http://www.w3.org/Graphics/SVG/1.1/DTD/svg11.dtd">
<svg version="1.1" id="Layer_1" xmlns="http://www.w3.org/2000/svg" xmlns:xlink="http://www.w3.org/1999/xlink" x="0px" y="0px"
	 width="200px" height="100px" viewBox="0 0 200 100" enable-background="new 0 0 200 100" xml:space="preserve">
<g>
	<path fill="#706F6F" d="M82.657,35.631c0.57,0,1.14,0,1.709,0c16.685,0,33.368-0.001,50.053,0.001c3.869,0,5.615,1.754,5.615,5.631
		c0.001,14.754,0.003,29.51,0,44.264c0,3.642-1.824,5.47-5.479,5.47c-22.523,0.004-45.047,0.004-67.571,0
		c-3.593-0.001-5.46-1.892-5.461-5.526c-0.006-13.921-0.088-27.844,0.043-41.763c0.046-4.935-0.496-9.757-1.449-14.566
		c-0.651-3.283,0.771-5.534,4.081-6.139c9.671-1.767,19.355-3.463,29.037-5.171c12.756-2.25,25.518-4.479,38.274-6.73
		c2.901-0.512,5.163,0.939,5.763,3.833c0.412,1.986,0.77,3.985,1.094,5.987c0.404,2.496-1.33,4.842-3.961,5.311
		c-10.088,1.797-20.184,3.562-30.273,5.345c-7.162,1.266-14.323,2.541-21.484,3.812C82.649,35.469,82.653,35.55,82.657,35.631z
		 M64.671,51.109c0,0.641,0,1.104,0,1.567c0,10.841-0.001,21.683,0.001,32.523c0,2.213,0.436,2.649,2.643,2.649
		c22.309,0.002,44.617,0.002,66.923,0c2.25,0,2.66-0.404,2.66-2.613c0.002-10.84,0.002-21.682,0.002-32.523c0-0.506,0-1.012,0-1.604
		C112.789,51.109,88.84,51.109,64.671,51.109z M80.961,32.467c-1.09-2.73-2.105-5.336-3.194-7.911
		c-0.119-0.281-0.706-0.582-1.018-0.53c-4.105,0.678-8.211,1.361-12.283,2.208c-0.555,0.115-1.365,1.17-1.306,1.708
		c0.271,2.461,0.81,4.893,1.272,7.448C69.988,34.407,75.405,33.45,80.961,32.467z M64.727,47.865c4.005,0,7.855,0.014,11.704-0.025
		c0.327-0.003,0.841-0.289,0.947-0.566c1.049-2.758,2.031-5.542,3.047-8.362c-5.341,0-10.511,0-15.698,0
		C64.727,41.907,64.727,44.763,64.727,47.865z M95.23,38.773c-3.7,0-7.085-0.013-10.471,0.019c-0.351,0.003-0.921,0.18-1.013,0.42
		c-1.083,2.82-2.096,5.668-3.18,8.655c3.663,0,7.049,0.017,10.434-0.024c0.383-0.004,0.994-0.254,1.105-0.542
		C93.171,44.545,94.151,41.758,95.23,38.773z M109.991,38.775c-3.688,0-7.173-0.016-10.657,0.026c-0.313,0.003-0.8,0.31-0.906,0.59
		c-1.052,2.755-2.041,5.534-3.108,8.473c3.703,0,7.192,0.016,10.676-0.026c0.309-0.004,0.779-0.321,0.888-0.604
		C107.938,44.479,108.928,41.701,109.991,38.775z M124.745,38.774c-3.646,0-7.082-0.014-10.521,0.021
		c-0.349,0.003-0.912,0.214-1.011,0.469c-1.063,2.793-2.052,5.614-3.125,8.603c3.687,0,7.12,0.024,10.552-0.036
		c0.375-0.006,0.943-0.421,1.08-0.778C122.748,44.394,123.689,41.701,124.745,38.774z M122.596,25.111
		c-0.703-1.772-1.307-3.315-1.928-4.85c-0.486-1.199-0.691-2.904-1.584-3.434c-0.871-0.517-2.458,0.172-3.73,0.33
		c-0.104,0.013-0.209,0.012-0.313,0.03c-2.21,0.409-4.42,0.819-6.725,1.246c1.068,2.72,2.004,5.199,3.043,7.633
		c0.16,0.375,0.843,0.821,1.211,0.765C115.85,26.33,119.111,25.724,122.596,25.111z M108.523,27.588
		c-0.904-2.282-1.869-4.35-2.534-6.51c-0.527-1.714-1.271-2.223-3.082-1.771c-2.694,0.673-5.469,1.019-8.398,1.537
		c1.104,2.783,2.103,5.383,3.198,7.942c0.127,0.299,0.828,0.569,1.208,0.508C102.035,28.788,105.143,28.2,108.523,27.588z
		 M80.72,23.278c1.172,2.958,2.286,5.771,3.425,8.647c3.584-0.643,7.036-1.261,10.588-1.898c-1.069-2.699-2.028-5.219-3.091-7.693
		c-0.158-0.368-0.849-0.792-1.223-0.735C87.251,22.085,84.1,22.677,80.72,23.278z M122.354,15.932
		c1.101,2.771,2.099,5.377,3.195,7.941c0.124,0.29,0.84,0.529,1.229,0.47c2.359-0.356,4.729-0.71,7.039-1.29
		c0.58-0.146,1.396-1.146,1.35-1.69c-0.169-2.007-0.566-4.009-1.078-5.961c-0.137-0.526-1.037-1.29-1.484-1.227
		C129.227,14.65,125.873,15.305,122.354,15.932z M136.895,47.786c0-2.507,0.027-4.935-0.014-7.362
		c-0.018-1.048-0.681-1.617-1.707-1.635c-2.076-0.036-4.154-0.029-6.23,0.002c-0.314,0.005-0.825,0.159-0.907,0.373
		c-1.082,2.825-2.104,5.672-3.181,8.623C129.001,47.786,132.874,47.786,136.895,47.786z"/>
	<path fill="#706F6F" d="M91.543,69.469c0-2.705-0.01-5.412,0.003-8.117c0.011-2.199,1.088-2.862,2.952-1.793
		c4.731,2.715,9.454,5.443,14.167,8.188c1.854,1.08,1.875,2.29,0.056,3.353c-4.757,2.773-9.521,5.532-14.301,8.269
		c-1.715,0.981-2.85,0.33-2.87-1.626C91.523,74.982,91.544,72.227,91.543,69.469z M105.305,69.439
		c-3.654-2.109-7.029-4.059-10.536-6.084c0,4.155,0,8.023,0,12.164C98.293,73.486,101.641,71.557,105.305,69.439z"/>
	<path fill="#706F6F" d="M69.036,31.7c-0.423-0.601-1.169-1.202-1.169-1.803c0-0.505,0.79-1.289,1.37-1.452
		c0.924-0.26,1.692,0.428,1.582,1.374c-0.076,0.656-0.717,1.247-1.105,1.866C69.487,31.69,69.262,31.695,69.036,31.7z"/>
	<path fill="#706F6F" d="M70.805,41.569c0.426,0.587,1.245,1.229,1.173,1.747c-0.082,0.595-0.888,1.36-1.508,1.508
		c-0.366,0.087-1.327-0.835-1.393-1.379c-0.069-0.57,0.614-1.23,0.969-1.852C70.299,41.585,70.553,41.577,70.805,41.569z"/>
</g>
<g>
	<g>
		<g>
			<path fill="#9D9D9C" d="M20-1.25c-3.333,0-6.667,0-10,0c-1.612,0-1.612,2.5,0,2.5c3.333,0,6.667,0,10,0
				C21.612,1.25,21.612-1.25,20-1.25L20-1.25z"/>
		</g>
	</g>
	<g>
		<g>
			<path fill="#9D9D9C" d="M60-1.25c-3.333,0-6.667,0-10,0c-1.612,0-1.612,2.5,0,2.5c3.333,0,6.667,0,10,0
				C61.612,1.25,61.612-1.25,60-1.25L60-1.25z"/>
		</g>
	</g>
	<g>
		<g>
			<path fill="#9D9D9C" d="M100-1.25c-3.333,0-6.667,0-10,0c-1.612,0-1.612,2.5,0,2.5c3.333,0,6.667,0,10,0
				C101.611,1.25,101.611-1.25,100-1.25L100-1.25z"/>
		</g>
	</g>
	<g>
		<g>
			<path fill="#9D9D9C" d="M140-1.25c-3.333,0-6.667,0-10,0c-1.611,0-1.611,2.5,0,2.5c3.333,0,6.667,0,10,0
				C141.611,1.25,141.611-1.25,140-1.25L140-1.25z"/>
		</g>
	</g>
	<g>
		<g>
			<path fill="#9D9D9C" d="M160-1.25c-3.333,0-6.667,0-10,0c-1.611,0-1.611,2.5,0,2.5c3.333,0,6.667,0,10,0
				C161.611,1.25,161.611-1.25,160-1.25L160-1.25z"/>
		</g>
	</g>
	<g>
		<g>
			<path fill="#9D9D9C" d="M200-1.25c-3.333,0-6.667,0-10,0c-1.611,0-1.611,2.5,0,2.5c3.333,0,6.667,0,10,0
				C201.611,1.25,201.611-1.25,200-1.25L200-1.25z"/>
		</g>
	</g>
	<g>
		<g>
			<path fill="#9D9D9C" d="M201.25,40c0-3.333,0-6.667,0-10c0-1.612-2.5-1.612-2.5,0c0,3.333,0,6.667,0,10
				C198.75,41.612,201.25,41.612,201.25,40L201.25,40z"/>
		</g>
	</g>
	<g>
		<g>
			<path fill="#9D9D9C" d="M201.25,80c0-3.333,0-6.667,0-10c0-1.611-2.5-1.611-2.5,0c0,3.333,0,6.667,0,10
				C198.75,81.611,201.25,81.611,201.25,80L201.25,80z"/>
		</g>
	</g>
	<g>
		<g>
			<path fill="#9D9D9C" d="M190,98.75c-3.333,0-6.667,0-10,0c-1.611,0-1.611,2.5,0,2.5c3.333,0,6.667,0,10,0
				C191.611,101.25,191.611,98.75,190,98.75L190,98.75z"/>
		</g>
	</g>
	<g>
		<g>
			<path fill="#9D9D9C" d="M150,98.75c-3.333,0-6.667,0-10,0c-1.611,0-1.611,2.5,0,2.5c3.333,0,6.667,0,10,0
				C151.611,101.25,151.611,98.75,150,98.75L150,98.75z"/>
		</g>
	</g>
	<g>
		<g>
			<path fill="#9D9D9C" d="M110,98.75c-3.333,0-6.667,0-10,0c-1.612,0-1.612,2.5,0,2.5c3.333,0,6.667,0,10,0
				C111.611,101.25,111.611,98.75,110,98.75L110,98.75z"/>
		</g>
	</g>
	<g>
		<g>
			<path fill="#9D9D9C" d="M70,98.75c-3.333,0-6.667,0-10,0c-1.612,0-1.612,2.5,0,2.5c3.333,0,6.667,0,10,0
				C71.612,101.25,71.612,98.75,70,98.75L70,98.75z"/>
		</g>
	</g>
	<g>
		<g>
			<path fill="#9D9D9C" d="M50,98.75c-3.333,0-6.667,0-10,0c-1.612,0-1.612,2.5,0,2.5c3.333,0,6.667,0,10,0
				C51.612,101.25,51.612,98.75,50,98.75L50,98.75z"/>
		</g>
	</g>
	<g>
		<g>
			<path fill="#9D9D9C" d="M10,98.75c-3.333,0-6.667,0-10,0c-1.612,0-1.612,2.5,0,2.5c3.333,0,6.667,0,10,0
				C11.612,101.25,11.612,98.75,10,98.75L10,98.75z"/>
		</g>
	</g>
	<g>
		<g>
			<path fill="#9D9D9C" d="M1.25,70c0-3.333,0-6.667,0-10c0-1.611-2.5-1.611-2.5,0c0,3.333,0,6.667,0,10
				C-1.25,71.611,1.25,71.611,1.25,70L1.25,70z"/>
		</g>
	</g>
	<g>
		<g>
			<path fill="#9D9D9C" d="M1.25,30c0-3.333,0-6.667,0-10c0-1.612-2.5-1.612-2.5,0c0,3.333,0,6.667,0,10
				C-1.25,31.612,1.25,31.612,1.25,30L1.25,30z"/>
		</g>
	</g>
	<g>
		<g>
			<path fill="#9D9D9C" d="M1.25,10c0-3.333,0-6.667,0-10c0-1.612-2.5-1.612-2.5,0c0,3.333,0,6.667,0,10
				C-1.25,11.612,1.25,11.612,1.25,10L1.25,10z"/>
		</g>
	</g>
	<g>
		<g>
			<path fill="#9D9D9C" d="M1.25,50c0-3.333,0-6.667,0-10c0-1.612-2.5-1.612-2.5,0c0,3.333,0,6.667,0,10
				C-1.25,51.611,1.25,51.611,1.25,50L1.25,50z"/>
		</g>
	</g>
	<g>
		<g>
			<path fill="#9D9D9C" d="M1.25,90c0-3.333,0-6.667,0-10c0-1.611-2.5-1.611-2.5,0c0,3.333,0,6.667,0,10
				C-1.25,91.611,1.25,91.611,1.25,90L1.25,90z"/>
		</g>
	</g>
	<g>
		<g>
			<path fill="#9D9D9C" d="M30,98.75c-3.333,0-6.667,0-10,0c-1.612,0-1.612,2.5,0,2.5c3.333,0,6.667,0,10,0
				C31.612,101.25,31.612,98.75,30,98.75L30,98.75z"/>
		</g>
	</g>
	<g>
		<g>
			<path fill="#9D9D9C" d="M90,98.75c-3.333,0-6.667,0-10,0c-1.612,0-1.612,2.5,0,2.5c3.333,0,6.667,0,10,0
				C91.612,101.25,91.612,98.75,90,98.75L90,98.75z"/>
		</g>
	</g>
	<g>
		<g>
			<path fill="#9D9D9C" d="M130,98.75c-3.333,0-6.667,0-10,0c-1.611,0-1.611,2.5,0,2.5c3.333,0,6.667,0,10,0
				C131.611,101.25,131.611,98.75,130,98.75L130,98.75z"/>
		</g>
	</g>
	<g>
		<g>
			<path fill="#9D9D9C" d="M170,98.75c-3.333,0-6.667,0-10,0c-1.611,0-1.611,2.5,0,2.5c3.333,0,6.667,0,10,0
				C171.611,101.25,171.611,98.75,170,98.75L170,98.75z"/>
		</g>
	</g>
	<g>
		<g>
			<path fill="#9D9D9C" d="M201.25,100c0-3.333,0-6.667,0-10c0-1.611-2.5-1.611-2.5,0c0,3.333,0,6.667,0,10
				C198.75,101.611,201.25,101.611,201.25,100L201.25,100z"/>
		</g>
	</g>
	<g>
		<g>
			<path fill="#9D9D9C" d="M201.25,60c0-3.333,0-6.667,0-10c0-1.612-2.5-1.612-2.5,0c0,3.333,0,6.667,0,10
				C198.75,61.611,201.25,61.611,201.25,60L201.25,60z"/>
		</g>
	</g>
	<g>
		<g>
			<path fill="#9D9D9C" d="M201.25,20c0-3.333,0-6.667,0-10c0-1.612-2.5-1.612-2.5,0c0,3.333,0,6.667,0,10
				C198.75,21.612,201.25,21.612,201.25,20L201.25,20z"/>
		</g>
	</g>
	<g>
		<g>
			<path fill="#9D9D9C" d="M180-1.25c-3.333,0-6.667,0-10,0c-1.611,0-1.611,2.5,0,2.5c3.333,0,6.667,0,10,0
				C181.611,1.25,181.611-1.25,180-1.25L180-1.25z"/>
		</g>
	</g>
	<g>
		<g>
			<path fill="#9D9D9C" d="M120-1.25c-3.333,0-6.667,0-10,0c-1.611,0-1.611,2.5,0,2.5c3.333,0,6.667,0,10,0
				C121.611,1.25,121.611-1.25,120-1.25L120-1.25z"/>
		</g>
	</g>
	<g>
		<g>
			<path fill="#9D9D9C" d="M80-1.25c-3.333,0-6.667,0-10,0c-1.612,0-1.612,2.5,0,2.5c3.333,0,6.667,0,10,0
				C81.612,1.25,81.612-1.25,80-1.25L80-1.25z"/>
		</g>
	</g>
	<g>
		<g>
			<path fill="#9D9D9C" d="M40-1.25c-3.333,0-6.667,0-10,0c-1.612,0-1.612,2.5,0,2.5c3.333,0,6.667,0,10,0
				C41.612,1.25,41.612-1.25,40-1.25L40-1.25z"/>
		</g>
	</g>
</g>
</svg>
